<svg xmlns="http://www.w3.org/2000/svg" width="600" height="600" overflow="hidden!important"><path d="M301.25 304.838h-2.5v-2.55h2.5v2.55z" fill="#080806"/><path d="M531.688 558.222c-15.32-25.903-34.359-30.532-50.052-35.537-16.123-5.141-49.332-8.104-67.445-11.73-17.493-3.501-59.04-14.762-59.514-34.395-.49-20.568 10.942-102.229 10.942-102.229H233.713s11.442 81.659 10.95 102.23c-.47 19.632-42.024 30.893-59.52 34.394-18.115 3.626-51.319 6.589-67.442 11.73-15.698 5.005-34.742 9.631-50.062 35.537-9.292 15.708-15.32 41.139-15.32 69.189h494.7c-.003-28.05-6.021-53.481-15.331-69.19z" fill="#4c2d18"/><path d="M354.677 476.563c6.362 27.869 46.32 34.93 67.047 39.079 55.868 11.166 86.119 13.091 107.857 49.824 7.403 12.536 13.92 40.453 15.204 61.59 4.679.742 1.354-44.451-13.097-68.834-24.842-42.004-74.177-38.595-117.497-47.265-17.493-3.5-59.04-14.762-59.514-34.394zm-109.354 0c-.474 19.632-42.021 30.893-59.514 34.394-43.32 8.67-92.655 5.261-117.497 47.265-14.45 24.385-17.776 69.576-13.097 68.834 1.283-21.137 7.8-49.054 15.204-61.59 21.736-36.733 51.989-38.658 107.857-49.824 20.726-4.15 60.685-11.213 67.047-39.079z" fill="#5b3b26"/><path d="M175.575 531.821s73.035.763 85.356 4.807c5.901 1.933 21.35 14.364 21.35 14.364s-16.719-8.083-22.079-9.583c-12.451-3.478-84.627-9.588-84.627-9.588zm123.902 26.74c5.235-.105 20.112-9.688 20.112-9.688s-14.214 5.25-18.722 5.508c-3.802.22-16.233-3.157-16.233-3.157s10.552 7.42 14.843 7.337zm43.893-18.467c17.213-4.636 75.955-8.237 75.955-8.237s-60.667-1.316-77.8 4.399c-5.743 1.918-19.284 13.158-19.284 13.158s15.463-7.798 21.13-9.32z" fill="#3d200d"/><path d="M531.688 558.222c-24.84-42.001-74.261-38.612-117.497-47.265-17.493-3.5-59.04-14.762-59.514-34.394-.49-20.568 10.942-102.23 10.942-102.23H233.713s11.442 81.66 10.95 102.23c-.47 19.632-42.024 30.893-59.52 34.394-18.115 3.626-51.319 6.59-67.442 11.73-15.698 5.006-34.742 9.632-50.062 35.537-9.292 15.708-15.32 41.14-15.32 69.19h494.7c-.003-28.053-6.021-53.484-15.331-69.192z" fill="none" stroke="#1e0c00" stroke-width="3.825"/><path d="M86.802 168.302c5.312 2.491 21.035 2.373 26.401 0 2.491-1.102 5.112-2.879 7.755-5.086.699-10.328 3.327-29.728 3.986-34.51a186.78 186.78 0 0 0-3.428-.303H78.609c-1.305.103-2.578.216-3.811.339.66 4.783 3.223 23.705 3.958 34.093 2.751 2.351 5.475 4.262 8.046 5.467z" fill="url(#a)" transform="matrix(2.55 0 0 2.55 45 48.564)"/><path d="M53.234 617.292c-1.586-.018-1.163-.015-2.346-.015.064-45.35 17.057-79.2 45.484-90.57 3.739.8 7.745 1.848 11.511 2.633-33.428 16.183-51.329 51.699-54.649 87.952zm454.956-88.298c-4.73.64-9.392 1.252-14.036 1.858 34.05 14.663 44.432 52.362 49.557 86.328.877-.002 1.67-.005 2.374-.005-2.762-42.758-3.448-70.467-37.895-88.181z" fill="#fe7541"/><path d="M507.848 538.655c1.872-.283 5.184-.826 7.04-1.116-4.279-3.241-6.808-4.993-9.358-6.5-14.92 2.573-151.174 18.135-225.7 18.135-97.76 0-169.886-17.238-183.475-21.147-2.78 1.581-5.483 3.318-8.033 5.256 2.55.655 5.613 1.525 8.206 2.144-26.362 18.08-40.354 49.771-43.294 81.865 77.495.87 156.69 1.311 235.419 1.311h.038c103.723 0 182.768-.76 225.236-1.168 13.74-.132 23.784-.23 29.781-.255-4.39-29.108-12.589-60.761-35.86-78.525z" fill="#ef5d25"/><path d="M104.77 530.518a84.898 84.898 0 0 0-8.17 4.986c126.997 30.697 281.06 22.962 410.993 3.151a64.274 64.274 0 0 0-9.366-5.872c-124.262 20.95-272.019 30.414-393.457-2.265z" fill="#e0470c"/><path d="M508.154 528.744c-228.021 30.806-317.182 17.929-411.876-2.272-33.861 13.545-45.645 54.447-45.645 91.06h1.25c269.435 3.042 464.923-.102 494.47-.102-2.805-42.924-3.297-70.798-38.2-88.686zm-411.544-.462c125.286 36.042 280.408 25.554 408.917 3.264 2.55 1.507 5.08 2.752 9.359 5.993-134.148 21.063-295.466 29.618-426.309-4.001 2.55-1.938 5.253-3.675 8.033-5.256zm-44.55 87.924c5-36.702 11.781-63.033 35.624-81.982 129.27 37.11 296.263 29.245 429.062 4.743 21.188 16.96 20.105 34.952 28.076 77.316-140.357-1.564-325.413-2.01-492.762-.077z" fill="#c13600"/><path d="M168.483 264.29c-3.333-5.604-13.658-19.374-24.176-15.997-6.66 2.137-7.978 9.121-9.048 15.289-1.425 8.202 1.14 24.426 3.364 30.288 2.135 5.633 8.56 16.512 12.752 20.657 5.16 5.087 11.568 21.301 12.583 22.982 1.599 2.658 3.72 6.65 9.985 6.149 6.912-.555 11.105-4.22 14.187-4.843 7.611-1.524-10.972-59.94-19.647-74.526z" fill="#4c2d18" stroke="#1e0c00" stroke-width="3.634"/><path d="M161.69 298.26c-.32-1.328.017-3.561.344-5.722.3-1.967.582-3.825.41-5.138-.647-4.923-4.295-14.276-6.679-19.344-2.742-5.83-7.178-13.176-12.747-15.07-2.302-.785-3.816.152-4.695 1.104-.644.7-.787 1.52-.577 1.616.209.097.69-.581 1.386-1.22.57-.524 1.403-.974 2.546-.88-.46 2.45-2.827 15.722-1.802 24.77.807 7.117 3.859 12.43 4.336 13.227.07.838.187 1.66.359 2.456 2.25 10.386 12.042 22.198 15.45 26.062.628.714 1.287 1.138 1.449.964.16-.175-.228-.882-.855-1.6-3.363-3.839-13.06-15.605-15.235-25.627-2.306-10.632 5.615-26.395 7.384-29.729a59.939 59.939 0 0 1 2.252 4.324c.46.984.974 2.135 1.5 3.38-1.04 1.74-8.319 14.433-5.664 24.595.984 3.746 5.414 8.576 8.35 9.899 1.616.729 2.227 1.817 2.93 3.079.813 1.463 1.739 3.12 4.428 4.322.545.247 1.039.344 1.477.344.759 0 1.335-.306 1.757-.67.043.645.04 1.464.022 2.222-.03.98.101 1.786.331 1.805.228.02.475-.758.502-1.737.039-1.201.031-2.689-.175-3.399-.6-2.095-2.441-4.46-4.392-6.964-1.91-2.469-3.893-5.017-4.392-7.07zm-17.555-9.208c-5.274-16.306 1.589-30.378 2.77-32.617 2.06 1.878 3.877 4.388 5.355 6.842-1.076 1.96-7.905 14.808-8.125 25.775zm22.75 23.852c-2.433-1.083-3.244-2.546-4.037-3.956-.71-1.277-1.448-2.597-3.316-3.44-.407-.182-.853-.463-1.313-.782-6.022-14.308.659-20.563 2.333-21.844.511 1.749.894 3.353 1.063 4.639.153 1.182-.126 3.06-.404 4.874-.344 2.25-.693 4.579-.332 6.085.547 2.244 2.59 4.867 4.564 7.406 1.751 2.25 3.551 4.574 4.169 6.468-.262.38-1.09 1.284-2.728.55z" fill="#1e0c00"/><path d="M430.846 264.29c3.336-5.604 13.66-19.374 24.177-15.997 6.662 2.137 7.977 9.121 9.05 15.289 1.425 8.202-1.14 24.426-3.365 30.288-2.134 5.633-8.558 16.512-12.756 20.657-5.158 5.087-11.568 21.301-12.58 22.982-1.594 2.658-3.719 6.65-9.984 6.149-6.913-.555-11.104-4.22-14.188-4.843-7.612-1.524 10.974-59.94 19.646-74.526z" fill="#4c2d18" stroke="#1e0c00" stroke-width="3.634"/><path d="M433.247 305.324c-1.95 2.502-3.789 4.867-4.392 6.965-.208.71-.213 2.197-.174 3.398.029.979.273 1.757.501 1.737s.359-.826.332-1.804a25.59 25.59 0 0 1 .024-2.222c.422.363.998.669 1.756.669.441 0 .933-.097 1.476-.344 2.686-1.202 3.614-2.859 4.428-4.322.7-1.26 1.315-2.347 2.929-3.079 2.938-1.323 7.367-6.153 8.35-9.898 2.655-10.16-4.622-22.857-5.664-24.596a107.8 107.8 0 0 1 1.5-3.38 60.933 60.933 0 0 1 2.253-4.324c1.768 3.336 9.69 19.097 7.386 29.73-2.17 10.021-11.87 21.787-15.235 25.627-.625.717-1.013 1.424-.853 1.599.16.172.82-.252 1.449-.964 3.406-3.867 13.2-15.676 15.453-26.062.17-.797.283-1.618.354-2.456.477-.797 3.534-6.112 4.338-13.227 1.023-9.048-1.344-22.32-1.802-24.77 1.146-.094 1.972.354 2.546.88.695.64 1.177 1.317 1.386 1.22s.065-.915-.577-1.615c-.88-.952-2.393-1.887-4.695-1.105-5.569 1.894-10.007 9.24-12.747 15.07-2.383 5.07-6.032 14.421-6.681 19.344-.174 1.313.109 3.171.412 5.138.327 2.161.661 4.395.341 5.722-.496 2.057-2.478 4.605-4.394 7.069zm13.825-42.05c1.48-2.454 3.297-4.964 5.356-6.841 1.183 2.24 8.043 16.31 2.774 32.617-.225-10.965-7.052-23.814-8.13-25.776zm-17.355 49.082c.616-1.894 2.418-4.217 4.17-6.468 1.976-2.538 4.016-5.162 4.566-7.405.358-1.507.01-3.835-.332-6.086-.279-1.814-.557-3.691-.402-4.874.165-1.286.55-2.89 1.061-4.639 1.674 1.282 8.355 7.537 2.338 21.844-.463.32-.909.6-1.316.782-1.867.843-2.602 2.164-3.316 3.44-.79 1.41-1.604 2.873-4.036 3.956-1.64.732-2.469-.172-2.733-.55z" fill="#1e0c00"/><path d="M409.966 367.435c-12.503 25.665-50.098 71.382-76.972 83.506-13.41 6.053-52.701 6.352-65.976 0-26.604-12.72-64.386-57.881-76.971-83.506-14.027-28.555-37.116-121.886-37.143-122.02-3.249-12.525-4.988-25.666-5.008-39.22-.13-85.354 67.86-154.633 151.872-154.765 84.018-.133 152.221 68.924 152.346 154.275.022 13.554-1.672 26.703-4.878 39.238-.043.132-23.286 93.777-37.27 122.492z" fill="#4c2d18"/><path d="M325.37 53.605c67.458 15.91 117.695 77.351 117.583 150.718-.023 13.551-1.76 26.698-5.008 39.22-.03.135-21.517 93.496-35.311 122.02-12.143 25.113-49.23 68.953-75.138 81.64-5.405 2.645-21.726 3.899-27.491 3.899-5.765 0-22.084-1.254-27.489-3.899-25.907-12.687-62.997-56.527-75.137-81.64-13.797-28.526-35.284-121.885-35.311-122.02-3.249-12.522-4.988-25.666-5.008-39.22-.113-73.364 50.12-134.808 117.583-150.718-72.029 12.287-126.864 75.936-126.747 152.587a156.997 156.997 0 0 0 5.008 39.22c.03.135 23.07 93.486 37.143 122.02 12.625 25.602 50.497 70.5 76.971 83.507 6.643 3.263 23.253 4.658 32.372 4.65 9.112.008 26.967-1.387 33.604-4.65 26.475-13.009 64.344-57.905 76.972-83.507 14.072-28.534 37.115-121.885 37.14-122.02 3.249-12.525 4.988-25.666 5.008-39.22.12-76.65-54.716-140.3-126.744-152.587z" fill="#442612"/><path d="M144.004 125.052c-5.003 10.066-20.047 27.996-30.801 32.751-5.366 2.374-21.089 2.491-26.401 0-10.646-4.989-25.765-22.701-30.801-32.751-5.613-11.199-14.852-47.803-14.863-47.856a60.396 60.396 0 0 1-2.004-15.382C39.082 28.339 66.289 1.168 99.907 1.116c33.621-.052 60.913 27.032 60.963 60.506a60.457 60.457 0 0 1-1.952 15.389c-.017.052-9.318 36.779-14.914 48.041z" fill="none" stroke="#1e0c00" stroke-width="1.5" transform="matrix(2.499 0 0 2.54974 50.1 48.584)"/><path d="M100.002 141.248c-4.158 0-5.133-3.404-5.133-3.404 5.5 2.12 10.267-.146 10.267-.146s-1.477 3.55-5.134 3.55z" fill="url(#b)" transform="translate(-44.245 -70.422) scale(3.4425)"/><path d="M254.575 383.782c9.487-3.274 24.004-9.267 31.554-9.601 3.9-.18 8.093 2.995 12.303 4.01 2.93.71 11.236-3.98 14.218-4.01 7.821-.083 24.304 6.327 32.71 9.601.465.186 0 0 0 0s-19.928 23.936-45.39 23.936c-28.82.003-45.395-23.936-45.395-23.936s-.472.169 0 0z" fill="#3e222f" stroke="#2f1521" stroke-width="2.582"/><path d="M346.62 383.08c-.165-.565-1.659-1.264-2.248-1.236-1.07.058-2.313 1.363-4.52 1.411-2.554.062-16.107 2.1-19.746 1.86-7.329-.49-13.164 2.292-20.132 2.292-6.97 0-13.315-3.036-20.64-2.544-3.64.248-16.687-1.542-19.248-1.608-2.213-.051-3.07-1.415-4.014-1.597-.66-.124-2.282.571-2.606 1.164-.286.512.317 2.306.72 2.733.98 1.022 3.91.833 5.845.881 2.675.059 15.756 1.852 19.45 1.604 7.164-.485 13.55 2.83 20.49 2.83s12.823-3.06 19.987-2.575c3.687.245 17.264-1.804 19.943-1.859 1.938-.048 4.702-.21 5.693-1.005.469-.372 1.195-1.773 1.026-2.351z" fill="#10040a"/><path d="M299.967 402.413c-11.6 0-22.875-3.97-31.812-11.378 4.5-.248 9.13-.953 13.636-.757 5.553.241 10.823 2.434 16.373 2.799 5.996.4 11.56-1.677 17.432-2.39 4.896-.585 12.614-2.32 17.526-2.14-8.785 6.733-21.95 13.866-33.155 13.866zm15.743-19.323c4.524-.127 11.753-1.831 16.262-1.504-4.836-2.613-12.589-3.24-18.049-4.293-4.702-.916-9.425 2.723-14.048 3.332-5.212.685-9.123-4.265-14.18-4.434-5.484.059-11.13 3.412-15.953 5.68 4.42-.117 8.975-.605 13.378-.04 5.39.684 10.565 2.812 16.025 2.994 5.587.193 10.978-1.587 16.565-1.735z" fill="#4d323f"/><path d="M299.802 399.136c-6.985 0-13.794-2.417-19.646-6.892 1.308-.131 2.63-.231 3.9-.231.403 0 .806.014 1.209.038 2.096.11 4.162.712 6.354 1.353 2.128.613 4.324 1.25 6.62 1.446.455.034.91.051 1.36.051 2.82 0 5.494-.702 8.083-1.377 1.642-.43 3.195-.836 4.792-1.077a18.385 18.385 0 0 1 2.881-.203c.923 0 1.873.051 2.816.124-4.87 3.618-11.177 6.768-18.369 6.768z" fill="#5d4550"/><path d="M61.952 84.523c-.506-2.285 5.191-3.973 12.711-3.051 7.518.923 12.738 5.524 12.052 7.844-.38 1.286-10.639 3.245-14.253 2.847-3.664-.405-9.288-2.123-10.51-7.64z" fill="url(#c)" transform="translate(56.948 59.656) scale(2.4225)"/><path d="M256.698 274.653c-2.982 10.954-14.283 17.41-25.264 14.399-10.97-3.006-17.45-14.336-14.463-25.296 2.98-10.964 14.305-17.417 25.277-14.406 10.966 3.004 17.437 14.336 14.45 25.303z" fill="#362518" stroke="#080401" stroke-width="1.211"/><path d="M234.304 256.891l-.535-.957a82.065 82.065 0 0 0-5.407 2.357l1.27 3.07-.16 1.773-4.897-2.88a71.533 71.533 0 0 0-4.522 2.761l.012.032-1.677 1.89 2.682 2.741-3.612 1.97 1.364 2.255 6.378.635-5.978 4.053 6.398-.354-3.375 5.804 7.885-4.77-2.12 8.113 4.562-7.492.88 8.04 1.317-7.113 1.212-.147 1.717 8.064.523-2.418c.688-.179 2.466 2.416 3.142 2.234l-2.008-8.772 4.402 8.772-1.786-9.099 5.417 7.037c.194-.06.674-2.916.865-2.974l-3.372-5.042 6.129 1.849-3.678-3.98-2.953-2.445 12.314 2.755-6.856-4.174 4.845-1.982-10.487-1.058 10.371-5.5-9.387 2.394-2.527-1.369-.62-1.214.18-2.904.208-4.765-4.283 7.541-.378-5.52-.538-1.447c-.858.3-1.7.594-2.527.908l-.39 1.328z" fill="#453326"/><path d="M256.933 264.931c-17.997.819-27.147 4.668-40.192 9.029-2.514-11.08 4.455-22.093 15.553-24.586 11.095-2.493 22.129 4.472 24.639 15.557z" fill="#27180d" opacity=".9"/><path d="M239.808 262.334c-4.528-1.298-9.15 1.29-10.315 5.802-1.172 4.49 1.55 9.189 6.08 10.487 4.533 1.301 9.16-1.289 10.33-5.78 1.18-4.515-1.558-9.213-6.095-10.509z" opacity=".8"/><path d="M239.808 262.334c-4.528-1.298-9.15 1.29-10.315 5.802-1.172 4.49 1.55 9.189 6.08 10.487 4.533 1.301 9.16-1.289 10.33-5.78 1.18-4.515-1.558-9.213-6.095-10.509z" fill="none" stroke="#080401" stroke-width="1.817"/><path d="M221.828 281.421c2.103 3.338 4.896 5.853 8.85 6.691 4.552.964 5.072-5.09 1.812-5.782-2.471-.521-4.039-1.732-5.327-3.782-2.362-3.75-7.231-.133-5.335 2.873z" fill="#fff" opacity=".5"/><path d="M76.468 83.449c1.316.265 2.082 1.087 2.747 2.323 1.222 2.272 4.676.252 3.453-2.019-1.073-1.995-2.86-3.703-5.138-4.162-2.915-.587-3.324 3.402-1.062 3.858z" fill="url(#d)" transform="translate(55.131 58.445) scale(2.4225)"/><path d="M191.397 272.836c0 33.447 19.525 60.56 43.605 60.56s43.605-27.113 43.605-60.56c0-33.45-19.525-60.563-43.605-60.563s-43.605 27.113-43.605 60.563zm15.63-8.423c-1.226-5.536 12.575-9.625 30.792-7.391 18.213 2.236 30.858 13.382 29.196 19.002-.92 3.115-25.773 7.86-34.528 6.897-8.876-.981-22.5-5.143-25.46-18.508z" fill="#4c2d18"/><path d="M72.462 92.163c3.614.398 13.873-1.561 14.253-2.847.687-2.32-4.534-6.921-12.052-7.844-6.46-.792-11.563.345-12.556 2.128.898-6.4 7.7-11.397 15.987-11.434 8.911-.037 16.148 5.676 16.172 12.765.021 7.088-7.185 12.862-16.095 12.902-8.913.037-16.149-5.676-16.173-12.764 0-.105.016-.208.019-.313 1.331 5.327 6.835 7.008 10.445 7.407z" fill="url(#e)" transform="translate(56.948 59.656) scale(2.4225)"/><path d="M61.952 84.523c-.506-2.285 5.191-3.973 12.711-3.051 7.518.923 12.738 5.524 12.052 7.844-.38 1.286-10.639 3.245-14.253 2.847-3.664-.405-9.288-2.123-10.51-7.64z" fill="url(#f)" transform="translate(56.948 59.656) scale(2.4225)"/><path d="M207.989 252.044c10.193-4.792 22.65-5.233 33.522-2.435 5.824 1.359 12.028 3.113 17.11 6.39 4.712 2.75 8.54 6.057 12.118 10.15-3.251-4.12-6.718-7.553-11.2-10.343-5.513-3.43-11.553-5.558-17.839-7.064-11.112-2.728-23.554-2.108-33.711 3.302z" fill="#1e0c00"/><path d="M195.801 255.81s5.64 2.135 8.709 1.502c-.945-1.111-2.655-3.885-2.655-3.885s4.489 1.335 7.633.077c2.132-.852 9.848-2.422 13.217-2.582 4.087-.199 12.29.303 16.316 1.027 8.173 1.473 21.766 6.371 28.29 17.403.617 1.386 3.408 2.231 3.408 2.231s-2.47-.52-2.783.102c-.683 1.36 3.144 4.884 3.624 5.322-.39-.35-3.123-2.75-4.172-2.342-.148.053-.332.94-.375 1.167.727-5.877-11.72-16.342-29.196-18.42-18.217-2.166-32.018 1.8-30.793 7.166 2.96 12.955 16.585 16.989 25.46 17.938 6.12.657 20.103-1.398 28.284-3.723l2.449-.768c-4.843 2.444-18.227 5.317-23.66 5.821-1.803.17-5.427.252-7.234.206-14.412-.383-24.613-7.701-28.414-17.587-.303-.795-1.197-1.5-2.03-1.686-3.886-.875-12.345-4.388-12.345-4.388 5.62.875 8.438 1.633 12.851.143-4.31-1.613-6.584-4.723-6.584-4.723z"/><path d="M138.048 84.523c.506-2.285-5.191-3.973-12.711-3.051-7.518.923-12.738 5.524-12.052 7.844.38 1.286 10.639 3.245 14.253 2.847 3.664-.405 9.288-2.123 10.51-7.64z" fill="url(#g)" transform="translate(58.552 59.656) scale(2.4225)"/><path d="M383.044 274.653c-2.983 10.954-14.284 17.41-25.265 14.399-10.969-3.006-17.449-14.336-14.462-25.296 2.98-10.964 14.305-17.417 25.276-14.406 10.967 3.004 17.44 14.336 14.45 25.303z" fill="#362518" stroke="#080401" stroke-width="1.211"/><path d="M360.65 256.891l-.535-.957a82.065 82.065 0 0 0-5.407 2.357l1.269 3.07-.16 1.773-4.896-2.88a71.533 71.533 0 0 0-4.523 2.761l.012.032-1.676 1.89 2.682 2.741-3.615 1.965 1.364 2.255 6.379.635-5.979 4.053 6.398-.354-3.372 5.81 7.885-4.77-2.12 8.112 4.562-7.492.88 8.04 1.317-7.113 1.211-.147 1.718 8.064.523-2.418c.688-.179 2.466 2.416 3.142 2.234l-2.008-8.772 4.402 8.772-1.786-9.099 5.417 7.037c.194-.06.673-2.916.865-2.974l-3.372-5.042 6.128 1.849-3.677-3.98-2.953-2.445 12.314 2.755-6.856-4.174 4.845-1.982-10.487-1.058 10.37-5.5-9.386 2.394-2.527-1.369-.62-1.214.179-2.904.208-4.765-4.283 7.541-.378-5.52-.537-1.447c-.858.3-1.701.594-2.527.908l-.39 1.328z" fill="#453326"/><path d="M383.278 264.931c-17.996.819-27.146 4.668-40.191 9.029-2.515-11.08 4.455-22.093 15.552-24.586 11.095-2.493 22.13 4.472 24.64 15.557z" fill="#27180d" opacity=".9"/><path d="M366.159 262.334c-4.528-1.298-9.15 1.29-10.318 5.802-1.172 4.49 1.553 9.189 6.078 10.487 4.538 1.301 9.157-1.289 10.335-5.78 1.172-4.515-1.56-9.213-6.095-10.509z" opacity=".8"/><path d="M366.159 262.334c-4.528-1.298-9.15 1.29-10.318 5.802-1.172 4.49 1.553 9.189 6.078 10.487 4.538 1.301 9.157-1.289 10.335-5.78 1.172-4.515-1.56-9.213-6.095-10.509z" fill="none" stroke="#080401" stroke-width="1.817"/><path d="M348.174 281.421c2.103 3.338 4.896 5.853 8.85 6.691 4.551.964 5.072-5.09 1.811-5.782-2.47-.521-4.038-1.732-5.327-3.782-2.362-3.75-7.23-.133-5.334 2.873z" fill="#fff" opacity=".5"/><path d="M126.461 83.449c1.316.265 2.082 1.087 2.747 2.323 1.222 2.272 4.676.252 3.453-2.019-1.073-1.995-2.86-3.703-5.138-4.162-2.915-.587-3.324 3.402-1.062 3.858z" fill="url(#h)" transform="translate(60.37 58.445) scale(2.4225)"/><path d="M364.998 212.273c-24.08 0-43.605 27.113-43.605 60.563 0 33.447 19.526 60.56 43.605 60.56s43.605-27.113 43.605-60.56c0-33.45-19.525-60.563-43.605-60.563zm2.515 70.648c-8.755.964-33.607-3.782-34.528-6.897-1.664-5.62 10.984-16.766 29.196-19.002 18.217-2.234 32.018 1.858 30.792 7.39-2.96 13.366-16.584 17.528-25.46 18.509z" fill="#4c2d18"/><path d="M127.538 92.163c-3.614.398-13.873-1.561-14.253-2.847-.687-2.32 4.534-6.921 12.052-7.844 6.46-.792 11.563.345 12.556 2.128-.898-6.4-7.7-11.397-15.987-11.434-8.911-.037-16.148 5.676-16.172 12.765-.021 7.088 7.185 12.862 16.095 12.902 8.913.037 16.149-5.676 16.173-12.764 0-.105-.016-.208-.019-.313-1.331 5.327-6.835 7.008-10.445 7.407z" fill="url(#i)" transform="translate(58.552 59.656) scale(2.4225)"/><path d="M138.048 84.523c.506-2.285-5.191-3.973-12.711-3.051-7.518.923-12.738 5.524-12.052 7.844.38 1.286 10.639 3.245 14.253 2.847 3.664-.405 9.288-2.123 10.51-7.64z" fill="url(#j)" transform="translate(58.552 59.656) scale(2.4225)"/><path d="M392.012 252.044c-10.194-4.792-22.65-5.233-33.523-2.435-5.824 1.359-12.028 3.113-17.11 6.39-4.712 2.75-8.54 6.057-12.117 10.15 3.25-4.12 6.717-7.553 11.199-10.343 5.513-3.43 11.553-5.558 17.84-7.064 11.111-2.728 23.553-2.108 33.71 3.302z" fill="#1e0c00"/><path d="M404.2 255.81s-5.64 2.135-8.71 1.502c.945-1.111 2.655-3.885 2.655-3.885s-4.489 1.335-7.633.077c-2.132-.852-9.847-2.422-13.217-2.582-4.087-.199-12.29.303-16.316 1.027-8.173 1.473-21.766 6.371-28.29 17.403-.617 1.386-3.408 2.231-3.408 2.231s2.47-.52 2.783.102c.684 1.36-3.144 4.884-3.624 5.322.39-.35 3.123-2.75 4.172-2.342.148.053.332.94.375 1.167-.726-5.877 11.72-16.342 29.196-18.42 18.218-2.166 32.019 1.8 30.793 7.166-2.96 12.955-16.585 16.989-25.46 17.938-6.12.657-20.103-1.398-28.283-3.723l-2.45-.768c4.843 2.444 18.227 5.317 23.661 5.821 1.802.17 5.426.252 7.234.206 14.411-.383 24.612-7.701 28.413-17.587.303-.795 1.197-1.5 2.03-1.686 3.886-.875 12.345-4.388 12.345-4.388-5.62.875-8.437 1.633-12.851.143 4.31-1.613 6.584-4.723 6.584-4.723z"/><path d="M140.204 113.007c.035 22.275-17.995 40.365-40.273 40.396-22.274.036-40.361-17.993-40.396-40.272-.034-22.274 17.995-40.361 40.273-40.396 22.275-.034 40.363 17.995 40.396 40.272z" fill="url(#k)" transform="matrix(2.55 0 0 2.55 45 48.564)"/><path d="M135 55.999c0 19.329-15.671 35-35 35s-35-15.671-35-35 15.671-35 35-35 35 15.671 35 35z" fill="url(#l)" transform="matrix(2.55 0 0 2.55 45 48.564)"/><path d="M189.323 241.384c20.043-36.077 84.34 6.312 86.885-8.434.494-2.956-1.234-4.554-3.955-5.472-32.02-10.565-74-18.455-82.93 13.906zm223.313-8.688c-26.697-31.474-81.488 22.644-86.861 8.678-1.061-2.802.322-4.707 2.812-6.139 29.343-16.608 68.977-32.536 84.05-2.54z" fill="#080806"/><path d="M292.426 279.557s.16 23.349-1.344 27.894c-3.31 9.985-17.955 33.128-16.099 39.548 2.889 9.979 17.058 10.71 24.22 11.058 6.856.337 20.794-.161 23.04-6.648.915-2.64-1.058-9.375-1.058-9.375s-6.35 6.534-21.308 5.806c-4.27-.205-11.214-4.399-11.293-10.313-.106-8.018 5.293-17.214 6.26-25.17.734-6.044-2.418-32.8-2.418-32.8z" fill="#3d200d"/><path d="M312.501 351.198c2.584 0 3.282.686 3.282 1.53 0 .851-.804 2.156-3.282 1.531-2.72-.677-7.472-.363-7.472-.363s4.889-2.698 7.472-2.698zm-24.659 0c-2.583.003-3.281.692-3.281 1.54 0 .844.777 2.064 3.281 1.527 2.76-.59 7.472-.366 7.472-.366s-4.885-2.692-7.472-2.701zm33.34-9.167s3.577 4.059 2.832 8.349c-.721 4.167-7.944 6.003-7.944 6.003s5.015-3.182 5.622-7.047c.281-1.807-.51-7.305-.51-7.305zm-44.132-4.176s-2.61 5.683-1.853 9.14c1.37 6.247 8.891 8.745 8.891 8.745s-4.694-4.287-6.363-8.073c-1.821-4.129-.675-9.812-.675-9.812z" fill="#1e0c00"/><path d="M312.375 345.054c2.505-1.868 2.754-2.932 2.238-3.627-.516-.698-2.018-1.14-4.114 1.111-2.311 2.481-7.338 4.311-7.338 4.311s6.71.073 9.214-1.795z" fill="#5b3b26"/><path d="M430.716 281.843c-9.626-11.214-10.936-16.772-7.444-28.848-7.835-6.162-10.821-13.807-5.638-29.84-20.067-.922-23.288-10.188-20.43-29.972-11.48-1.376-19.72-8.386-20.884-21.777-9.903.352-20.849-2.812-23.925-11.968-11.186 1.682-15.341-1.716-18.235-7.675-11.02 4.503-18.77 2.323-26.974-5.13-7.37 2.386-13.305.4-19.353-2.823-4.27 8.924-9.533 10.936-18.935 9.228-2.833 11.445-13.032 18.547-28.733 14.928-4.29 11.747-12.19 16.42-23.678 14.697-6.99 12.096-19.37 15.439-33.58 14.036 4.784 12.724 1.715 18.374-9.153 22.038 5.688 13.274 8.087 17.119-.12 28.075 8.634 13.182 3.134 28.404-6.087 31.571v1.079c-21.73-25.799-20.277-189.584-.055-190.346-4.126-19.355 253.863-16.15 253.863-3.1 18.87 1.017 25.207 185.623 9.361 195.827z" fill="#080806" opacity=".1"/><path d="M430.714 282.093c-9.632-11.839-10.939-17.698-7.45-30.444-7.83-6.5-10.818-14.57-5.633-31.487-20.072-.974-23.29-10.755-20.432-31.63-11.475-1.45-19.72-8.847-20.884-22.98-9.903.372-20.846-2.966-23.925-12.629-11.183 1.775-15.336-1.81-18.233-8.103-11.018 4.753-18.767 2.453-26.971-5.41-7.37 2.513-13.305.423-19.35-2.979-4.271 9.416-9.534 11.538-18.935 9.735-2.834 12.078-13.032 19.575-28.731 15.752-4.293 12.397-12.19 17.329-23.678 15.51-6.99 12.762-19.37 16.293-33.574 14.812 4.783 13.427 1.712 19.388-9.154 23.256 5.685 14.008 8.084 18.065-.12 29.628 8.634 13.914 3.131 29.97-6.09 33.313v1.134c9.876 29.19-23.875 41.365-28.688 17.425-12.78-.222-18.618-8.71-9.307-22.333-17.78-3.297-15.926-19.995.25-30.306-14.659-6.255-22.85-17.339-6.147-32.19-20.14-8.953-16.146-27.691.015-42.72-13.717-11.641-6.773-22.789 10.156-29.176-7.02-15.115 1.609-26.9 17.593-30.574-11.106-13.669-4.141-30.181 16.078-30.984-4.133-20.424 9.994-29.475 30.368-25.12 4.51-14.825 14.202-16.767 28.443-11.964 3.904-11.762 15.012-14.107 26.847-10.466 7.607-9.608 19.937-4.978 30.695.272 9.137-10.341 22.224-6.514 33.377 1.665 14.274-12.486 31.987-6.308 44.637 8.422 16.236-6.813 29.28-2.848 38.502 13.759 15.09-.712 20.977 6.397 20.977 20.165 18.867 1.076 40.948 15.707 34.47 36.913 14.15 2.657 21.51 13.458 15.267 30.707 8.402 4.143 12.155 14.643 11.763 19.939-.445 5.849-3.936 11.861-6.962 17.397 12.92 8.5 17.378 27.728 8.012 37.55 6.2 7.98.907 26.963-12.468 37.045 7.455 8.108 9.649 11.124-8.684 26.555 11.923 16.495 2.899 30.212-7.737 30.212-2.794 0-4.725-.762-7.11-1.848-12.764 19.783-36.22 2.97-17.187-27.823z" fill="#080806"/><path d="M452.44 272.952c-7.497 0-17.493 5.1-17.493 0-2.254-6.905 1.607-10.778 7.894-16.211-4.755 2.777-10.393.574-10.393-1.637-4.503-11.482-.867-25.008 10.85-31.313-4.448 1.672-9.6 2.628-13.35.716-5.992-8.154-3.98-24.427 4.724-30.638-8.232 2.881-17.183 5.803-24.715.041-7.497-10.199-2.5-28.047 9.996-35.696-9.996 0-22.491 10.199-32.487 5.1-9.996-7.65-2.5-17.849 4.998-25.498-9.996 0-19.992 15.298-29.988 2.55-2.5-5.1 2.499-10.2 2.499-15.299-4.998 5.1-17.493 15.298-22.491 7.65-2.5-7.65 7.497-12.75 7.497-20.399-4.998 5.1-19.992 15.299-22.491 7.65-2.5-5.1 0-15.299 7.497-17.849-12.495 2.55-19.992 22.948-32.487 12.75-2.5 0-4.998-10.2-2.5-15.3-4.997 10.2-12.494 17.849-22.49 22.948-2.499-5.1-7.497-10.199-4.998-15.298-4.998 10.199-2.499 28.047-17.493 28.047-2.499 0-10.148-9.671-10.148-14.77 0 12.748.152 24.969-7.345 30.068-9.996 7.65-17.493-5.099-22.491-15.298-4.998 15.298-7.497 30.597-22.491 35.696-7.497 2.55-14.994-2.55-17.493-10.199 0 10.2-2.914 20.985 4.998 30.597-10.236-9.077-20.68-3.679-29.988 0 9.996 15.299 24.99 35.697 0 43.346 12.495 2.55 24.99 17.848 17.493 28.047-4.998 2.55-9.996-2.55-14.994-5.1 9.491 16.946 12.2 43.063-13.212 41.299 6.225 21.27 37.797 8.98 28.204-19.378v-1.135c9.22-3.343 14.721-19.4 6.09-33.312 8.206-11.563 5.807-15.617.12-29.628 10.865-3.866 13.936-9.83 9.153-23.256 14.205 1.48 26.585-2.048 33.574-14.812 11.488 1.818 19.385-3.116 23.678-15.51 15.7 3.822 25.895-3.674 28.731-15.752 9.402 1.802 14.665-.319 18.935-9.735 6.045 3.401 11.98 5.494 19.35 2.978 8.204 7.863 15.954 10.163 26.972 5.41 2.896 6.29 7.05 9.878 18.232 8.104 3.08 9.663 14.022 13 23.926 12.628 1.167 14.134 9.411 21.53 20.884 22.981-2.861 20.875.36 30.656 20.432 31.63-5.186 16.917-2.197 24.987 5.633 31.487-3.49 12.746-2.18 18.605 7.449 30.443-16.586 26.837-.905 43.045 11.85 33.675-8.606-13.567-3.146-33.958 9.879-42.818z"/><path d="M483.902 217.949c9.366-9.822 4.908-29.05-8.012-37.55.463-.844 2.015-3.297 3.526-6.63 1.747-3.554 3.167-7.19 3.437-10.77.055-.764.017-1.65-.103-2.6.035-6.385-2.686-12.915-11.66-17.338 6.242-17.25-1.117-28.05-15.267-30.707 6.478-21.206-15.603-35.837-34.47-36.913 0-13.768-5.886-20.877-20.977-20.166-9.222-16.606-22.266-20.568-38.502-13.758-12.653-14.73-30.363-20.908-44.637-8.422-11.156-8.18-24.24-12.006-33.377-1.665-10.758-5.25-23.088-9.88-30.695-.273-11.836-3.64-22.946-1.295-26.847 10.467-14.242-4.804-23.933-2.86-28.444 11.964-20.376-4.35-34.503 4.701-30.375 25.13-20.22.803-27.184 17.315-16.078 30.984-15.984 3.674-24.61 15.46-17.593 30.574-16.931 6.39-23.873 17.535-10.156 29.177-16.161 15.028-20.155 33.766-.015 42.718-16.704 14.85-8.512 25.936 6.147 32.19-16.173 10.31-18.03 27.008-.25 30.307a37.174 37.174 0 0 0-1.517 2.41c-.155.265-.272.52-.414.78-.275.51-.553 1.017-.783 1.51-.142.305-.252.598-.38.9-.18.425-.362.853-.507 1.27-.11.313-.19.614-.28.92-.112.377-.225.757-.31 1.121-.07.311-.114.61-.164.91-.055.337-.108.674-.138 1-.027.301-.035.594-.042.885-.005.3-.005.6.012.887.018.29.05.576.088.854a9.694 9.694 0 0 0 .367 1.597c.075.226.16.448.252.665.113.268.23.53.365.783.105.188.22.37.34.55.162.256.33.508.522.745.12.15.26.29.39.434.223.242.448.484.7.708.12.107.257.202.382.301.298.237.595.472.925.684.075.048.162.086.24.135 1.777 1.073 4.008 1.79 6.625 2.1.012 0 .025.006.037.006.832.097 1.69.163 2.594.18.138.684.305 1.33.487 1.951 6.255.434 10.799-.826 13.965-3.217-6.183-1.079-8.864-7.698-15.744-10.036-.165-.056-.285-.135-.437-.2 2.849-3.48 6.082-7.562 4.67-13.505 1.057-.66 2.16-1.219 3.264-1.594-1.314 0-2.626-.163-3.9-.436-.02-.053-.036-.104-.056-.158-1.622-4.013-5.133-6.907-9.316-7.685a12.396 12.396 0 0 1-1.95-.51c2.035-3.89 18.66-14.245 12.926-23.13a4.3 4.3 0 0 0-.203-1.227c-1.172-3.585-5.638-4.378-10.308-5.775-3.181-1.64-4.748-3.104-5.278-3.82 2.087-5.14 10.516-7.596 9.029-17.43-.058-.385-.153-.722-.233-1.073a34.949 34.949 0 0 0 4.291-10.148c-6.632 0-14.34-2.26-17.33-6.752 1.676-6.586 11.505-13.718 13.442-21.31 3.72-1.686 7.72-3.216 11.385-5.085-5.668 0-14.174-5.826-14.761-10.875 4.483-2.379 11.247-5.41 13.224-10.948 2.812-1.375 5.67-2.53 9.034-3.675-3.83-3.908-10.576-7.814-11.275-10.573.005-.418.037-.814.122-1.17.207-.368.57-.707 1.157-1.005a430.775 430.775 0 0 0 4.106-3.53c4.92-1.945 11.765-3.342 14.08-10.272 1.404-4.197.567-8.835-2.207-12.249-.095-.115-.168-.22-.258-.334-.13-1.999-.37-4.212-.727-6.762 0-.275.07-.517.115-.772 3.781-2.26 12.707-2.252 16.713-6.597 4.396-.275 9.047-.28 13.16-.28-7.492-5.732-7.964-15.76-3.524-21.5 6.293-.091 14.852 2.866 20.03-2.187 2.124.553 4.208 1.185 6.185 1.996-.92-2.639-.2-6.142-.2-8.906 1.544-1.576 3.526-2.807 5.72-3.71 2.42.73 5.14 1.867 8.062 1.867 3.87 0 6.188-1.04 7.764-2.51 3.651 1.22 6.76 3.47 8.442 6.903-2.499-7.65 1.907-12.787 4.998-15.299.215-.176.422-.334.635-.502.447.115.91.245 1.4.395 15.003 4.618 5.232-11.994 28.91-.43 5.55 2.707 9.206 1.09 12.128-1.003 6.157 2.147 12.552 5.072 11.723 6.69 2.746-1.978 5.415-3.681 8.054-5.022 4.633 2.567 9.406 4.072 14.999-.824a19.93 19.93 0 0 1 2.171-1.644c2.652.714 5.363 1.963 8.187 3.883 1.485 3.029 6.19 9.605 3.239 11.565 4.638-2.088 9.026-4.974 13.474-6.955 3.19 2.595 6.298 4.64 9.434 4.64 3.056 0 6.587-1.856 10.391-2.748 1.507.948 2.704 2.215 2.704 4.704 0 2.41-.577 4.23-1.694 5.5 5.023-1.665 9.978-2.713 14.711-2.657a39.04 39.04 0 0 1 1.515 2.496c4.115 7.41 9.728 6.125 13.846 6.257.115 4.455-2.306 9.69-8.019 11.013 5.1-.273 10.948 1.229 15.926 4.051a12.49 12.49 0 0 0 5.993 4.546c3.76 3.825 6.023 8.72 5.228 14.343 2.319-.49 4.728-.587 7.47.346 4.997 5.1 12.494 17.849 2.498 22.948 12.495-2.55 32.487 5.1 22.491 20.398 0 0-4.998 2.55-7.497 5.1 7.105 0 14.172 1.33 19.482 4.821 2.917 3.083 4.089 7.756-1.944 18.804-1.13 2.066-1.719 3.848-1.919 5.434a22.24 22.24 0 0 1-8.12 1.537c3.097 0 5.756.45 8.175 1.14.935 5.263 6.687 8.269 10.318 13.356-2.411 3.064-7.037 5.76-10.993 8.45 5.268.833 8.334 6.167 9.014 12.325a9.082 9.082 0 0 0 .075 4.4c-.387 5.386-2.519 10.756-6.592 13.871h-1.415c2.502.809 4.596 2.537 5.8 4.521-1.419 1.989-3.173 3.901-5.31 5.513-7.477 5.635-5.573 12.078-3.001 16.558a41.352 41.352 0 0 1-2.622-.299c.165 0 2.077-4.163 4.031-2.572.847 1.229 1.6 2.195 1.915 2.761-.395.984 1.244 4.314-6.116 10.51-5.12 4.31-4.603 12.236-.474 17.542 2.359 3.034 3.37 5.903 3.61 8.519-1.191 5.76-3.493 11.079-6.337 14.003.413 0 .817-.056 1.225-.1.315.679 2.754.054 5.383-1.838 2.594-1.6 4.69-4.128 5.83-7.353 2.004-5.02 1.74-12.01-4.703-20.923 18.332-15.429 16.138-18.448 8.684-26.556 13.374-10.076 18.667-29.06 12.467-37.04z" fill="#171714"/><path d="M485.674 217.918c8.23-8.648 4.688-29.513-8.122-37.94 2.8-5.125 6.098-10.99 6.548-16.879.477-6.464-4.529-17.267-11.446-20.678 6.37-17.632-3.376-28.83-15.219-31.056 6.028-19.654-15.926-36.04-34.833-37.125 0-13.342-7.12-20.95-21.517-20.27-8.174-14.694-21.561-21.219-38.859-13.973-15.651-18.233-34.416-17.815-45.057-8.516-10.19-7.478-24.628-11.767-33.611-1.606-10.739-5.24-23.663-9.253-30.838-.179-7.005-2.154-22.721-3.133-27.19 10.327-13.324-4.49-24.274-1.846-28.513 12.086-19.612-4.19-34.958 6.002-31.037 25.395-19.448.785-26.585 19.396-16.819 31.413-11.465 2.634-24.537 14.51-17.043 30.648-15.848 5.982-23.538 18.743-10.346 29.934-11.5 10.688-22.278 33.325-.424 43.04-14.647 13.013-7.737 26.298 5.747 32.05-14.469 9.227-15.858 27.97.325 30.98-7.142 10.448-4.003 22.45 10.421 22.692 4.985 24.763 42.008 10.576 30.963-18.894v-.025c8.579-3.11 14.951-20.306 6.347-34.167 7.485-10.55 4.37-14.732-.975-27.894 11.338-4.029 14.145-13.593 10.596-23.56 15.177 1.589 27.02-5.097 32.387-14.89 11.868 1.869 20.172-4.865 23.816-15.4 14.414 3.51 26.134-4.139 28.863-15.783 8.26 1.583 14.81-1.138 18.568-9.435 5.695 3.208 12.385 4.72 18.467 2.652 8.69 8.34 17.708 9.467 26.664 5.61 3.33 7.208 10.171 9.118 17.993 7.878 2.544 7.991 13.532 12.902 23.64 12.52 1.103 13.322 10.3 21.458 20.618 22.769-2.597 18.868.822 30.78 20.166 31.719-5.517 17.955-4.023 21.073 5.796 31.081-3.447 12.657-.99 19.421 7.424 29.755-19.46 31.554 6.548 48.89 19.192 29.323 15.444 7.042 29.161-11.711 16.094-29.756 10.788-9.092 19.515-14.987 8.846-26.594 12.22-9.21 18.518-29.24 12.368-37.252zm-14.242 35.414c-2.499-2.218-5.55-3.978-8.496-4.437 1.474.242 6.807 4.493 9.246 9.23 5.48 9.659-6.6 20.663-9.099 21.877-1.574-1.836-3.496-3.366-5.673-4.36 11.24 5.072 10.988 38.249-7.797 33.733 4.664-9.11 3.237-18.692 3.237-18.692s.722-.663-4.539 13.016c-8.164 21.196-32.474 11.362-18.312-20.484 1.127-2.563 3.039-5.888 5.772-6.222-1.699.051-3.173 1.02-4.448 2.372-11.253-19.401-8.906-28.43-3.898-39.776-1.974 3.161-3.624 6.578-4.823 10.122-12.26-11.51-3.561-33.98-.825-42.58-1.75 3.57-3.523 7.496-4.973 11.575-23.386-2.432-22.838-37.063-15.294-38.5-2.999-.383-4.498 2.88-5.273 6.705-9.926-3.167-22.766-14.215-19.367-35.824-1.097 3.876-1.8 8.083-1.847 12.29-7.864-1.125-20.466-2.685-22.618-11.015l.777-9.995c-1.55 3.264-2.574 6.731-2.074 10.097-21.909 1.19-19.017-20.612-16.269-25.319-2.246 3.152-3.8 10.553-2.499 15.732-13.104 2.573-18.175.133-23.468-2.83 7.627-3.527 13.945-13.292 14.994-19.276-.382 2.073-5.932 8.38-7.522 9.842-4.585 4.197-9.39 5.206-12.944 6.323h-.025c-4.576 1.479-9.647.816-14.147-.765 1.64-3.886 1.959-11.989 1.55-12.85.566 2.791-3.54 21.621-20.493 21.621.35-3.39-.2-6.859-1.849-10.071 5.188 13.812-12.417 28.412-27.04 27.231 1.43-4.105 2.652-13.837 2.5-14.457.432 2.55-7.832 28.521-25.59 28.761a17.783 17.783 0 0 0 1.1-8.669c1.132 9.225-13.54 24.452-35.236 24.452-1.425-3.366-3.549-6.45-5.973-8.924 5.276 7.73 5.86 17.583 4.898 18.613 0 4.992-6.017 9.74-10.395 12.162-2.075-4.258-4.699-8.26-7.597-11.678 5.437 8.274 16.87 26.324 9.02 41.255-2.203-2.955-4.182-5.275-11.472-8.317 14.994 6.257 18.792 36.456 5.353 42.305-2.032-3.834-6.468-7.72-6.468-7.72s3.592 4.45 4.769 10.145c1.28 2.55 1.581 13.193-4.674 21.393-4.833 6.374-17.44 9.928-22.116-3.188 4.274-.23 8.572-1.479 11.57-3.238-3.695 1.907-24.91 3.141-23.34-10.913.752-7.855 6.562-16.599 14.42-16.599-4.599-.688-9.322 1.81-12.82 5.66-17.91-6.72-6.1-27.68 11.92-35.313-2.5.686-5.7 1.384-11.37 4.87-21.387-11.538-4.896-34.852 4.172-36.461-3.898.357-7.472 2.141-10.62 4.538-20.227-12.251-2.657-47.655 12.02-45.385-4.623-1.48-8.547 0-11.97 2.651-14.647-15.01 12.275-31.989 21.341-29.347-3.274-1.224-6.722-.969-10.046-.026-2.149-8.625.4-28.57 28.089-29.959-3.624-.382-7.322-.688-10.92-.255-8.762-17.499 6.304-33.94 28.513-28.43a35.516 35.516 0 0 0-11.57-2.524c0-32.596 39.381-21.466 42.183-21.137-3.699-1.275-7.547-2.601-11.42-3.62 8.733-17.418 36.632-10.715 39.758-1.148-1.024-4.717-5.173-7.777-9.421-9.766 8.412-13.937 28.016-12.483 30.713-4.92-.475-1.99-1.55-3.52-2.95-4.667 7.408-5.125 30.234-2.96 34.162 6.63-.75-3.137-2.699-5.431-5.173-7.14 4.738-3.23 16.241-4.941 28.864 1.224-2.757 2.881-4.024 5.64-6.173 8.848 2.65-2.856 5.098-5.686 8.022-7.853 2.674 1.631 4.773 3.926 5.623 7.368-.33-2.55-.32-4.89-4.149-8.363 12.178-7.7 27.142.426 38.81 9.077-2.852 1.377-5.698 2.728-8.597 3.8 15.789-2.8 26.5-12.66 46.684 8.643-4.3.612-8.574 1.58-12.445 2.142.967.05 18.585-.21 19.217.408 9.611 1.394 14.062 8.223 16.441 17.363-3.071.434-5.72 1.862-7.097 4.998 6.887-11.994 43.503 9.37 40.961 31.49a23.607 23.607 0 0 0-13.095 3.747c16.199-6.632 32.967 4.687 29.264 26.747-1.825-.153-3.624.306-5.273 1.683 5.463-4.615 21.694 7.058 11.598 35.696-2.7-1.249-5.623-1.53-7.897.714 8.519-8.43 24.38 26.214 16.743 37.176-2.626-2.193-5.775-3.825-9.246-4.59 13.904 4.322 9.341 28.249-3.579 41.278z"/><defs><radialGradient id="k" cx="100" cy="113" r="40" gradientUnits="userSpaceOnUse" class="svga-on-canvas-facehighlight-gradient-single-0"><stop stop-opacity=".5" stop-color="#5b3b26" offset="0"/><stop stop-opacity="0" stop-color="#4c2d18" offset=".9"/></radialGradient><radialGradient id="l" cx="100" cy="57" r="36" gradientUnits="userSpaceOnUse" class="svga-on-canvas-facehighlight-gradient-single-1"><stop stop-opacity=".5" stop-color="#5b3b26" offset="0"/><stop stop-opacity="0" stop-color="#4c2d18" offset=".9"/></radialGradient><radialGradient id="c" cx="129.05" cy="85.956" r="15.117" gradientTransform="scale(-1 1) rotate(5.981 22.869 -1851.746)" gradientUnits="userSpaceOnUse" class="svga-on-canvas-eyesback-gradient-left-0"><stop stop-color="#fff" offset="0"/><stop stop-color="#fcfdfd" offset=".316"/><stop stop-color="#f4f7f8" offset=".505"/><stop stop-color="#e5ecef" offset=".661"/><stop stop-color="#d8e2e7" offset=".76"/></radialGradient><radialGradient id="g" cx="129.049" cy="85.956" r="15.117" gradientTransform="rotate(5.981 122.875 62.424)" gradientUnits="userSpaceOnUse" class="svga-on-canvas-eyesback-gradient-right-0"><stop stop-color="#fff" offset="0"/><stop stop-color="#fcfdfd" offset=".316"/><stop stop-color="#f4f7f8" offset=".505"/><stop stop-color="#e5ecef" offset=".661"/><stop stop-color="#d8e2e7" offset=".76"/></radialGradient><radialGradient id="e" cx="121.786" cy="84.496" fx="133.039" fy="84.527" r="16.003" gradientTransform="matrix(.9998 .0208 .0166 -.7998 -44.952 149.543)" gradientUnits="userSpaceOnUse" class="svga-on-canvas-eyesfront-gradient-left-3"><stop stop-color="#3d200d" offset="0"/><stop stop-opacity=".3" stop-color="#3d200d" offset=".7"/><stop stop-opacity="0" stop-color="#4c2d18" offset="1"/></radialGradient><radialGradient id="f" cx="69.124" cy="107.529" r="29.525" gradientTransform="translate(-1.68 1.728) scale(1.0336)" gradientUnits="userSpaceOnUse" class="svga-on-canvas-eyesfront-gradient-left-4"><stop stop-opacity="0" offset=".95"/><stop stop-opacity=".3" offset="1"/></radialGradient><radialGradient id="i" cx="121.786" cy="84.496" fx="133.039" fy="84.527" r="16.003" gradientTransform="matrix(-.9998 .0208 -.0166 -.7998 244.952 149.543)" gradientUnits="userSpaceOnUse" class="svga-on-canvas-eyesfront-gradient-right-3"><stop stop-color="#3d200d" offset="0"/><stop stop-opacity=".3" stop-color="#3d200d" offset=".7"/><stop stop-opacity="0" stop-color="#4c2d18" offset="1"/></radialGradient><radialGradient id="j" cx="69.124" cy="107.529" r="29.525" gradientTransform="matrix(-1.0336 0 0 1.0336 201.68 1.728)" gradientUnits="userSpaceOnUse" class="svga-on-canvas-eyesfront-gradient-right-4"><stop stop-opacity="0" offset=".95"/><stop stop-opacity=".3" offset="1"/></radialGradient><linearGradient id="d" x1="130" y1="81" x2="126" y2="85" gradientTransform="translate(-50)" gradientUnits="userSpaceOnUse" class="svga-on-canvas-eyesiris-gradient-left-6"><stop stop-color="#fff" offset="0"/><stop stop-opacity="0" stop-color="#fff" offset="1"/></linearGradient><linearGradient id="h" x1="130" y1="81" x2="126" y2="85" gradientUnits="userSpaceOnUse" class="svga-on-canvas-eyesiris-gradient-right-6"><stop stop-color="#fff" offset="0"/><stop stop-opacity="0" stop-color="#fff" offset="1"/></linearGradient><linearGradient id="a" x1="99.98" y1="171.27" x2="99.98" y2="136.351" gradientUnits="userSpaceOnUse" class="svga-on-canvas-chinshadow-gradient-single-0"><stop stop-opacity=".8" stop-color="#3d200d" offset="0"/><stop stop-color="#1e0c00" offset=".7"/></linearGradient><linearGradient id="b" x1="100" y1="141" x2="100" y2="138" gradientUnits="userSpaceOnUse" class="svga-on-canvas-mouth-gradient-single-0"><stop stop-color="#442612" offset=".1"/><stop stop-color="#3d200d" offset="1"/></linearGradient></defs></svg>