<svg xmlns="http://www.w3.org/2000/svg" width="600" height="600" overflow="hidden!important"><path d="M300.304 305.17h-2.55v-2.55h2.55v2.55z" fill="#433b39"/><path d="M542.342 558.329c-5.6-12.102-20.897-30.036-37.893-34.991-21.01-6.128-68.434-13.536-86.02-17.654-14.096-3.305-42.487-28.8-52.437-37.357-1.785-1.53-3.247-4.69-3.282-7.038-.355-27.703 10.697-101.296 10.697-101.296H224.653s11.052 73.59 10.692 101.296c-.028 2.348-1.497 5.508-3.277 7.038-9.95 8.558-38.342 34.052-52.438 37.357-17.587 4.118-65.012 11.779-86.019 17.906-17 4.952-32.293 22.634-37.893 34.736-9.455 20.42-11.69 57.375-11.69 89.25h510c0-31.872-2.236-68.827-11.686-89.247z" fill="#f0c7b1"/><path d="M449.876 518.243c62.072 9.032 88.195 22.205 96.375 129.338h7.778c0-31.875-2.237-68.83-11.687-89.25-5.6-12.102-20.897-30.036-37.893-34.99-21.01-6.128-68.434-13.536-86.02-17.654-14.096-3.305-46.516-30.776-55.189-41.693 8.568 11.996 32.617 39.793 53.688 47.073 10.08 3.484 18.475 5.07 32.948 7.176zm-268.744-7.176c21.07-7.277 45.117-35.077 53.688-47.073-8.67 10.914-41.091 38.388-55.19 41.693-17.585 4.118-65.01 11.778-86.019 17.906-16.996 4.952-32.293 22.634-37.893 34.736-9.45 20.42-11.687 57.375-11.687 89.25h7.778c8.13-106.447 34.361-120.317 96.375-129.339 14.47-2.103 22.868-3.69 32.948-7.173z" fill="#ffe4d6"/><path d="M287.926 552.826s-12.939-4.103-18.062-6.066c-26.645-10.223-113.207-16.848-113.207-16.848s91.173 3.618 111.292 7.086c-1.168-12.156-7.693-51.01-7.693-51.01s13.13 42.878 16.343 53.695c1.719 5.784 11.327 13.143 11.327 13.143zm27.537-3.422c-.227.186-.487.428-.77.683.288-.216.549-.443.77-.683zm-27.537 3.422s7.377 7.63 11.085 7.727c4.87.13 12.311-7.393 15.685-10.466-3.226 2.44-10.606 3.547-13.54 3.662-3.392.13-13.23-.923-13.23-.923zm53.596-19.173c-3.94.632-11.184 2.012-11.184 2.012l5.831-37.97c-1.647 7.831-11.408 41.338-20.706 51.709 4.87-4.12 15.703-6.097 21.227-6.895 26.101-3.784 26.091-3.782 104.708-12.597 0 0-74.131-.395-99.876 3.74z" fill="#e1ac8f"/><path d="M542.342 558.329c-5.6-12.102-20.897-30.036-37.893-34.991-21.01-6.128-68.434-13.536-86.02-17.654-14.096-3.305-42.487-28.8-52.437-37.357-1.785-1.53-3.247-4.69-3.282-7.038-.355-27.703 10.697-101.296 10.697-101.296H224.653s11.052 73.59 10.692 101.296c-.028 2.348-1.497 5.508-3.277 7.038-9.95 8.558-38.342 34.052-52.438 37.357-17.587 4.118-65.012 11.779-86.019 17.906-17 4.952-32.293 22.634-37.893 34.736-9.455 20.42-11.69 57.375-11.69 89.25h510c0-31.872-2.236-68.827-11.686-89.247z" fill="none" stroke="#c27b55" stroke-width="3.825"/><path d="M124.272 162.248a3.725 3.725 0 0 1-.051-.515c-.094-7.38 1.819-22.721 3.098-32.078-15.699-1.984-38.937-1.975-54.637.016 1.279 9.359 3.19 24.687 3.094 32.062a3.11 3.11 0 0 1-.03.367c3.825 3.586 7.667 6.528 11.055 8.151 5.312 2.546 21.035 2.427 26.401 0 3.411-1.541 7.254-4.439 11.07-8.003z" fill="url(#a)" transform="matrix(2.55 0 0 2.55 44.029 48.895)"/><path d="M548.413 562.837c-26.718-51.709-78.165-44.38-127.418-58.25-1.193 9.142-33.79 52.222-41.532 76.656-4.347-3.628-9.537-8.479-13.283-12.918-18.33-21.53-45.494-91.188-54.61-36.791 1.98-24.42 12.757-29.8 27.72-9.33 16.086 22.026 16.683 33.399 39.633 57.351 4.054-16.832 12.831-28.71 23.041-43.615 9.882-14.44 17.098-20.953 18.154-33.808-3.685-6.14-2.803-8.89-8.757-12.867-37.37-25.276-10.69-50.924-44.564-57.03a440.305 440.305 0 0 1-.88 9.049c7.245 3.728 9.413 18.238-1.741 28.86-17.725 19.46-46.206 20.426-53.632 50.295l-.017-.003c-2.364 8.866-4.256 22.437-5.154 30.393l-6.26 63.49-6.299-62.365c-5.107-46.815-11.783-51.395-33.616-65.861-14.466-9.588-38.105-24.055-30.389-40.41.88-1.892 1.951-3.055 3.28-3.93-.383-3.738-.607-5.906-.903-9.379-27.966 1.191-23.667 40.754-44.844 55.31-5.552 3.815-8.382 7.341-10.374 13.079 1.354 16.016 36.985 52.214 43.21 78.792 23.167-24.46 23.345-35.146 39.525-57.27 13.936-19.036 25.316-17.083 27.71 8.677-1.315-7.739-4.431-19.586-11.183-19.586-5.565 0-11.363 8.206-14.232 12.166-16.062 22.129-18.643 37.957-42.45 57.714-1.647-4.95-3.58-9.922-5.885-14.55-9.435-19.059-34.984-57.516-37.888-61.244-11.291 3.178-28.501 6.697-38.844 8.415-67.585 11.248-93.784 33.071-103.747 135.23 247.865-2.51 348.868-1.418 533.485-1.418-2.307-22.731-6.844-64.671-17.256-84.852z" fill="#152c5e"/><path d="M400.95 535.392c-8.826 12.887-15.813 23.715-20.166 37.283 5.016-27.996 36.812-54.503 33.37-71.244-1.474-7.17-26.842-23.157-28.155-46.92 7 21.772 33.13 37.311 33.173 47.743.069 17.07-.441 7.158-18.222 33.138zm164.518 110.274c.885-22.139-6.559-65.239-15.785-83.124-26.719-51.71-80.485-45.112-129.736-58.982-.436.556 1.25 4.233.069 5.814 115.13 21.216 128.24 46.504 145.452 136.292zm-379.119-157.98c14.145-11.722 18.386-23.077 21.632-33.178-7.268 41.514-18.133 25.814-26.061 46.604-4.534 11.89 30.608 44.378 35.358 71.56-6.227-10.646-12.903-23.747-21.728-36.635-6.87-10.04-11.246-19.22-18.052-26.946-3.243-17.118 3.456-16.932 8.851-21.405zm-8.853 21.408c-1.18-1.581-2.28-3.07-2.716-3.627-49.25 13.867-98.415 5.366-125.131 57.077-9.228 17.886-13.836 54.476-16.379 76.663 4.92-26.96 12.25-60.927 27.956-81.419 26.632-36.125 75.776-43.097 116.27-48.694z" fill="#233b6d"/><path d="M349.641 485.945c-12.4 7.19-22.901 14.25-29.868 24.176 16.746.923 29.123 30.853 32.472 34.922-31.45-43.773-43.35-14.025-47.175 13.852 1.101-9.042 2.006-24.47 3.791-31.092.52-2.634 1.08-5.154 1.668-7.367l.018.003c7.426-29.869 35.907-30.835 53.632-50.294 11.153-10.623 8.983-25.133 1.741-28.861.278-2.573.615-5.995.88-9.05 1.859.34 3.516.745 5.054 1.196 22.846 20.097-6.627 45.54-22.213 52.515zm-104.252 0c12.404 7.19 27.571 15.713 34.517 24.778-12.235-2.226-25.834 16.05-32.635 32.199 29.325-37.401 38.25-16.15 47.601 15.976-1.099-9.04-3.886-24.47-5.671-31.093-.52-2.634-1.076-5.153-1.668-7.366l-.015.002c-7.426-29.868-34.89-30.835-52.614-50.294-11.154-10.623-9.236-25.132-1.992-28.86a464.875 464.875 0 0 1-.877-9.05 48.847 48.847 0 0 0-5.054 1.196c-19.145 23.378 4.401 44.015 18.408 52.512z" fill="#0a1f4f"/><path d="M365.012 465.369c.08-14.538-.405-6.472 1.066-22.925 5.672 3.042 6.393 15.53-1.066 22.925zm-131.929-1.375c-5.923-7.752-6.655-15.67-.885-21.65 1.382 12.899.681 11.343.885 21.65z" fill="#01153f"/><path d="M420.47 500.028c-.526-9.032-19.923-16.564-28.53-36.146-6.163-13.948-.313-29.922-25.665-32.49-1.39 8.127-2.622 25.993-2.252 34.627-12.847 13.829-32.719 17.406-45.352 32.275-13.484 15.872-19.329 50.235-19.55 121.551l3.141-2.042s3.499-67.537 3.524-67.736c7.864-67.389 32.865-51.472 58.597-79.72 11.528-11.047 8.774-25.684 1.84-29.231.302-2.856.582-5.684.83-8.543 21.807 4.006 15.577 16.843 22.399 32.52 9.067 20.844 26.257 25.396 27.366 35.504 1.76 16.017-7.798 22.815-17.383 36.807-15.078 21.825-18.564 32.958-20.658 41.585-22.886-24.036-22.899-34.573-39.265-56.962-17.452-23.883-28.914-12.684-33.726 28.04.495-6.694 9.614-43.796 20.51-37.36 12.594 7.339 24.967 38.525 39.68 55.81 3.925 4.648 8.979 9.312 13.63 13.213 8.688-30.337 40.8-62.385 41.84-77.022 50.223 14.167 136.27-.37 143.925 142.705-104.902.561-218.828-1.739-532.873 1.413 4.551-47.014 12.25-93.095 40.093-113.865 11.947-8.943 25.799-13.62 40.066-16.596 19.882-4.12 42.131-6.77 61.845-12.104 2.01 2.55 36.223 54.054 43.921 75.472 27.7-21.683 38.778-62.37 54.03-69.396 10.618-4.878 19.275 30.442 19.77 37.11-4.157-43.072-17.723-57.166-43.411-12.553-12.659 21.99-16.014 27.953-29.478 42.1-5.406-22.935-43.083-66.183-41.446-78.188 1.617-11.847 16.101-8.576 25.75-33.772 5.411-14.127 4.213-29.702 27.306-34.31.25 2.976.553 5.916.857 8.889-6.322 4.159-7.928 18.133 2.172 27.902 9.096 10.417 25.51 16.36 36.35 24.674 12.778 9.86 17.832 19.959 21.9 55.258.089.77 3.493 68.702 3.493 68.702l3.4 1.701c-1.701-70.974-8.505-113.648-22.24-125.608-11.862-10.582-32.575-17.33-42.627-29.144.306-8.863-1.441-26.82-2.533-33.586-22.973 2.341-23.623 16.927-28.55 29.662-13.17 34.045-25.841 24.294-27.94 38.4-.196 1.319.107 2.31.426 4.065-19.329 3.948-43.452 6.536-62.834 10.08-28.925 5.281-56.215 20.548-68.66 49.603-9.452 22.05-12.19 61.33-12.884 85.534-.028.174-.028.375-.028.549.387.03.8.03 1.188.03 332.711 3.537 531.545-1.474 534.311-1.474.974-136.068-73.401-130.116-146.275-147.933zm-55.203-35.422c.041-7.479.268-16.139.811-22.162 4.075 2.907 7.24 12.57-.81 22.162zm-132.314-1.099c-6.762-8.85-4.08-17.432-1.01-20.4.64 5.983.893 14.36 1.01 20.4z" fill="#000f30"/><path d="M160.326 265.54c-3.598-5.965-15.327-22.285-24.3-19.996-7.297 1.87-7.202 12.042-7.767 18.06-.823 8.828-1.124 24.206 1.272 30.446 2.304 5.99 9.593 17.568 14.118 21.984 5.57 5.414 14.463 22.67 15.558 24.46 1.722 2.83 5.177 6.88 10.477 6.56 7.44-.448 13.866-7.478 14.45-10.865 3.152-18.386-14.445-55.13-23.808-70.65z" fill="#f0c7b1" stroke="#c27b55" stroke-width="3.634"/><path d="M156.762 301.87c-.346-1.364.017-3.665.373-5.884.323-2.023.625-3.935.441-5.286-.7-5.063-4.639-14.68-7.209-19.894-2.963-5.998-7.75-13.554-13.757-15.502-2.481-.806-4.116.158-5.061 1.134-.698.717-.855 1.563-.627 1.664.23.1.743-.6 1.494-1.257.616-.538-1.23-.097 0 0-.496 2.52-2.095 15.267-.993 24.572.867 7.32 2.544 12.788 3.06 13.607.075.862.2 1.708.387 2.526 2.428 10.684 18.213 24.654 21.885 28.634.678.734 1.39 1.17 1.565.991s-.245-.903-.918-1.642c-3.629-3.954-19.31-17.88-21.655-28.186-2.488-10.935 9.477-27.149 11.383-30.58a60.57 60.57 0 0 1 2.433 4.446 95.692 95.692 0 0 1 1.623 3.476c-1.122 1.788-12.399 14.843-9.53 25.294 1.06 3.854 9.258 8.822 12.43 10.181 1.744.751 2.398 1.87 3.158 3.164.882 1.512.08 5.4 2.98 6.635.591.252 1.124.354 1.597.354.818 0 1.438-.315 1.896-.688.049.657.046 1.5.022 2.28-.029 1.012.114 1.475.359 1.494.25.022.508-.421.54-1.422.041-1.235.034-2.764-.187-3.498-.651-2.153-2.635-4.588-4.74-7.163-2.07-2.532-2.41-7.338-2.949-9.45zM134.4 292.4c-5.688-16.77 3.108-32.047 4.385-34.348 2.452.966 6.206 5.312 7.803 7.836-1.163 2.018-11.95 15.23-12.188 26.512zm26.17 26.725c-2.625-1.119-1.71-4.806-2.558-6.26-.77-1.313-1.565-2.67-3.583-3.536-.436-.19-.918-.475-1.412-.805-6.497-14.716.71-21.148 2.517-22.463.555 1.797.967 3.447 1.153 4.772.165 1.211-.143 3.144-.438 5.01-.37 2.313-.751 4.709-.356 6.26.59 2.308.995 7.194 3.127 9.806 1.892 2.315 3.835 4.704 4.499 6.652-.286.387-1.185 1.318-2.948.564z" fill="#c27b55"/><path d="M437.06 265.54c3.6-5.965 15.33-22.285 24.301-19.996 7.297 1.87 7.202 12.042 7.769 18.06.824 8.828 1.122 24.206-1.272 30.446-2.304 5.99-9.595 17.568-14.118 21.984-5.57 5.414-14.465 22.67-15.557 24.46-1.723 2.83-5.177 6.88-10.48 6.56-7.437-.448-13.864-7.478-14.45-10.865-3.15-18.386 14.45-55.13 23.808-70.65z" fill="#f0c7b1" stroke="#c27b55" stroke-width="3.634"/><path d="M437.681 311.322c-2.105 2.575-4.09 5.01-4.74 7.164-.224.736-.228 2.265-.19 3.498.034 1 .293 1.444.545 1.422.247-.02.388-.482.359-1.495-.024-.78-.03-1.623.02-2.28a2.936 2.936 0 0 0 1.896.688c.472 0 1.008-.101 1.599-.353 2.895-1.238 2.095-5.126 2.977-6.635.76-1.294 1.415-2.416 3.162-3.164 3.17-1.36 11.368-6.325 12.43-10.182 2.868-10.45-8.41-23.508-9.53-25.293a96.183 96.183 0 0 1 1.617-3.477 61.209 61.209 0 0 1 2.438-4.445c1.906 3.43 13.868 19.642 11.383 30.58-2.348 10.305-18.026 24.232-21.655 28.185-.676.739-1.097 1.463-.923 1.643.18.179.89-.257 1.565-.991 3.673-3.98 19.455-17.95 21.883-28.634a18.43 18.43 0 0 0 .392-2.527c.511-.816 2.19-6.284 3.057-13.607 1.102-9.305-.496-22.052-.993-24.571 1.23-.097-.615-.538 0 0 .753.656 1.267 1.356 1.495 1.257.227-.102.07-.945-.625-1.664-.948-.977-2.583-1.94-5.063-1.134-6.008 1.948-10.797 9.503-13.76 15.501-2.57 5.214-6.507 14.831-7.207 19.894-.184 1.352.119 3.263.44 5.286.354 2.219.72 4.52.374 5.884-.538 2.11-.877 6.916-2.946 9.45zm13.12-45.434c1.6-2.524 5.352-6.867 7.803-7.836 1.277 2.301 10.073 17.577 4.387 34.348-.237-11.281-11.024-24.494-12.19-26.512zm-16.928 52.668c.661-1.948 2.607-4.336 4.498-6.652 2.13-2.612 2.537-7.498 3.128-9.807.392-1.55.014-3.946-.354-6.26-.298-1.865-.605-3.798-.44-5.009.183-1.325.595-2.975 1.15-4.772 1.807 1.315 9.014 7.75 2.517 22.464-.492.329-.974.615-1.415.804-2.015.867-2.81 2.224-3.583 3.537-.847 1.453.07 5.143-2.555 6.26-1.764.758-2.663-.173-2.946-.565z" fill="#c27b55"/><path d="M411.239 372.738c-12.758 26.073-51.12 72.514-78.543 84.828-13.683 6.15-53.777 6.451-67.322 0-27.147-12.921-65.7-58.796-78.543-84.828-14.313-29.004-37.87-123.81-37.9-123.948-3.315-12.72-5.09-26.074-5.11-39.839-.133-86.7 69.242-157.075 154.968-157.207 85.733-.135 155.328 70.015 155.456 156.712.022 13.77-1.706 27.127-4.978 39.86-.04.132-23.758 95.255-38.028 124.422z" fill="#f0c7b1"/><path d="M324.916 53.95c68.835 16.16 120.098 78.574 119.984 153.098-.023 13.767-1.795 27.12-5.11 39.841-.031.138-21.956 94.975-36.032 123.95-12.39 25.51-50.235 70.044-76.67 82.929-5.516 2.69-22.17 3.965-28.053 3.965-5.883 0-22.535-1.275-28.05-3.965-26.436-12.885-64.283-57.418-76.671-82.929-14.079-28.975-36.003-123.812-36.031-123.95-3.315-12.72-5.09-26.074-5.11-39.841-.115-74.524 51.142-136.938 119.982-153.1-73.5 12.484-129.455 77.139-129.335 155.003a158.765 158.765 0 0 0 5.11 39.839c.031.137 23.542 94.964 37.901 123.948 12.883 26.007 51.528 71.616 78.543 84.828 6.778 3.317 23.728 4.73 33.032 4.725 9.298.008 27.518-1.408 34.29-4.725 27.015-13.214 65.658-58.818 78.543-84.828 14.359-28.984 37.872-123.81 37.898-123.948 3.315-12.72 5.09-26.074 5.11-39.839.122-77.864-55.832-142.52-129.33-155.002z" fill="#e8b9a0"/><path d="M411.239 372.738c-12.758 26.073-51.12 72.514-78.543 84.828-13.683 6.15-53.777 6.451-67.322 0-27.147-12.921-65.7-58.796-78.543-84.828-14.313-29.004-37.87-123.81-37.9-123.948-3.315-12.72-5.09-26.074-5.11-39.839-.133-86.7 69.242-157.075 154.968-157.207 85.733-.135 155.328 70.015 155.456 156.712.022 13.77-1.706 27.127-4.978 39.86-.04.132-23.758 95.255-38.028 124.422z" fill="none" stroke="#c27b55" stroke-width="3.825"/><path d="M100.2 142.947c-2.832.144-3.644-2.753-3.644-2.753s3.931.565 6.991-.353c.001.001-.855 2.981-3.347 3.106z" fill="url(#b)" transform="translate(-45.105 -74.658) scale(3.4425)"/><path d="M300.825 409.909c-6.83.344-12.96-.265-13.347-.307a.857.857 0 0 1-.77-.936c.051-.475.492-.802.943-.771.14.01 14.1 1.394 23.195-1.16.451-.11.933.14 1.064.599s-.138.93-.596 1.06c-3.215.902-6.947 1.336-10.489 1.515z" fill="#c27b55"/><path d="M238.901 373.897s43.142 5.115 57.552 5.16c15.674.041 66.378-5.16 66.378-5.16-14.658 12.165-30.786 23.863-67.318 24.094-32.676.21-41.048-11.657-56.612-24.094z" fill="#fff"/><path d="M238.901 373.897s43.142 5.115 57.552 5.16c15.674.041 66.378-5.16 66.378-5.16-14.658 12.165-30.786 23.863-67.318 24.094-32.676.21-41.048-11.657-56.612-24.094z" fill="none" stroke="#c27b55" stroke-width="2.582"/><path d="M83.071 89.125c-3.293-.784-4.969 1.059-9.809 1.166-8.057.177-9.938-.618-11.199-2.638a15.28 15.28 0 0 1-1.264-2.601l-.1-4.149c1.328-3.949 19.541-4.352 25.9 1.784.287.666.433 1.287.465 1.867-.19.958-.512 1.878-.947 2.749-.706.81-1.762 1.426-3.046 1.822z" fill="url(#c)" transform="matrix(2.55 0 0 2.55 44.029 48.895)"/><path d="M248.666 263.733c0 8.448-6.852 15.297-15.3 15.297s-15.3-6.85-15.3-15.297c0-8.456 6.852-15.303 15.3-15.303s15.3 6.85 15.3 15.303z" fill="#89683c"/><path d="M224.472 270.885c2.231-.183.255-.78.255-.78-1.104-.594-3.183-1.51-3.183-2.348 0-2.63 3.606-3.313-.086-4.348-3.835-3.52 2.976-3.448 2.925-3.565-2.487-6.059.762-2.731 2.129-4.521 5.07-6.628 1.413.68 4.164 0 .997-.245-1.989-3.904.087-3.392 1.374.337 1.688 1.48 1.688 1.48 1.002-.197 2.57-1.74 2.57-1.74 1.91.577 3.251 3.29 2.66 2.782.938-.114 2.254-.563 3.28-.87 0 0 .178-.609.354-.083 2.338 6.785 8.374 6.298 1.425 8.262 0 0-.449 0 .974 1.127 6.91 5.518-5.36 3.812 1.15 6.35.265-.266-3.901 2.46-3.901 3.215 0 1.277-2.657 4.636-4.963 3.315-1.285-.735-1.481 1.53-2.236.484-1.482-2.047-4.442-.089-3.348-1.97 1.617-1.33-1.668.52-2.305.52-2.112 0 2.761-7.097 9.93-1.824 2.095 1.535-2.204-3.654 1.593-3.654.38.125.265-1.329.265-1.74-1.973-.384 3.545-.007 3.545-3.217.35.069 1.298-.893-4.17 0 0 0-.173-1.913-.086-2.26.28-1.117 3.096-.76 2.305-1.912 0-.003-2.037-4.09-2.037-4.09-6.562-1.056-2.81-1.714-6.913-.87-.194.964-8.785 5.06-8.512 6.96.255 1.79 5.393 2.391.53 5.563 7.288 13.954-5.38-.319-.09 3.126z" fill="#987a52"/><path d="M233.366 250.343l.436 11.202 4.685-10.182-3.884 10.513 8.229-7.611-7.612 8.226 10.516-3.884-10.18 4.69 11.2.433-11.2.434 10.18 4.69-10.516-3.885 7.612 8.227-8.229-7.612 3.884 10.514-4.685-10.182-.436 11.202-.436-11.202-4.687 10.182 3.881-10.514-8.226 7.612 7.612-8.227-10.516 3.884 10.18-4.69-11.195-.433 11.194-.433-10.18-4.69 10.517 3.884-7.612-8.226 8.226 7.611-3.88-10.513 4.686 10.182.436-11.202z" fill="#6a4819"/><path d="M235.396 253.704l-1.374 8.453 5.051-6.913-4.503 7.285 7.318-4.457-6.948 5.008 8.463-1.313-8.333 1.966 8.328 2.024-8.458-1.371 6.915 5.054-7.288-4.501 4.458 7.316-5.009-6.949 1.316 8.464-1.966-8.339-2.027 8.323 1.374-8.453-5.059 6.913 4.509-7.285-7.316 4.457 6.948-5.008-8.463 1.316 8.336-1.966-8.323-2.023 8.453 1.37-6.916-5.054 7.288 4.5-4.455-7.315 5.009 6.948-1.316-8.46 1.968 8.338 2.02-8.328z" fill="#5b390d"/><path d="M239.104 263.733a5.738 5.738 0 1 1-11.476-.001 5.738 5.738 0 0 1 11.476 0z" opacity=".9"/><path d="M227.34 274.726c-.843.846-2.511.548-3.722-.666-1.214-1.211-1.513-2.879-.666-3.725.844-.844 2.512-.546 3.723.665 1.214 1.214 1.512 2.88.666 3.726z" fill="#fff" opacity=".7"/><path d="M245.622 260.719c-1.265 1.264-4.328.255-6.84-2.26-2.514-2.514-3.524-5.577-2.259-6.841 1.265-1.265 4.327-.255 6.84 2.259 2.514 2.517 3.523 5.577 2.259 6.842z" fill="#fff" opacity=".9"/><path d="M181.038 263.345c-.974 8.425 25.127 56.11 51.18 56.11s49.726-13.494 49.726-56.107c0-45.362-23.672-56.103-49.725-56.103s-46.344 14.295-51.181 56.1zm18.03 2.435l-.254-10.58c3.386-10.07 49.83-11.097 66.045 4.55 3.56 8.239-1.043 13.966-9 16.417-8.396-2-12.67 2.7-25.012 2.973-20.546.451-25.342-1.576-28.558-6.727-1.333-2.137-2.608-4.916-3.22-6.633z" fill="#f0c7b1"/><path d="M59.698 82.412c.023 7.534 7.646 13.604 17.038 13.566 9.389-.043 16.985-6.179 16.961-13.713-.023-7.533-7.647-13.605-17.04-13.566-9.392.044-16.984 6.179-16.959 13.713zm1.102 2.641l-.1-4.149c1.328-3.949 19.541-4.352 25.9 1.784 1.396 3.231-.409 5.477-3.529 6.438-3.293-.784-4.969 1.059-9.809 1.166-8.057.177-9.938-.618-11.199-2.638a15.229 15.229 0 0 1-1.263-2.601z" fill="url(#d)" transform="matrix(2.55 0 0 2.55 44.029 48.895)"/><path d="M62.063 87.654a15.28 15.28 0 0 1-1.264-2.601l-.1-4.149c1.328-3.949 19.541-4.352 25.9 1.784 1.396 3.231-.409 5.477-3.529 6.438-3.293-.784-4.969 1.059-9.809 1.166-8.055.177-9.937-.619-11.198-2.638z" fill="url(#e)" transform="matrix(2.55 0 0 2.55 44.029 48.895)"/><path d="M272.164 255.937c-24.523-14.69-42.587-15.626-71.698-13.754 24.3-3.828 52.285-1.05 71.698 13.754z" fill="#c27b55"/><path d="M269.015 266.367c-8.262-21.203-66.154-21.328-69.949-10.662v9.933c-2.603-3.925-2.67-4.165-3.781-8.68l-5.598 1.902s7.003-9.876 13.513-11.172c56.574-11.268 65.33 15.277 65.815 18.679zm-8.892 10.55c-11.793-5.05-15.147.963-29.485 1.261-20.41.429-24.396-1.953-28.369-6.313 2.073 5.332 3.506 7.866 27.731 7.719 13.709-.085 21.198-5.748 30.123-2.668z"/><path d="M116.529 89.125c3.293-.784 4.969 1.059 9.809 1.166 8.057.177 9.938-.618 11.199-2.638a15.28 15.28 0 0 0 1.264-2.601l.1-4.149c-1.328-3.949-19.541-4.352-25.9 1.784-.287.666-.433 1.287-.465 1.867.19.958.512 1.878.947 2.749.706.81 1.762 1.426 3.046 1.822z" fill="url(#f)" transform="matrix(2.55 0 0 2.55 44.029 48.895)"/><path d="M379.991 263.73c0 8.456-6.844 15.3-15.3 15.3s-15.3-6.844-15.3-15.3 6.844-15.3 15.3-15.3 15.3 6.844 15.3 15.3z" fill="#89683c"/><path d="M355.787 270.888c2.241-.194.267-.778.267-.778-1.106-.596-3.197-1.51-3.197-2.361 0-2.63 3.615-3.302-.06-4.348-3.855-3.511 2.959-3.437 2.9-3.557-2.48-6.066.778-2.734 2.152-4.526 5.05-6.62 1.406.688 4.154 0 .987-.24-2.001-3.9.09-3.392 1.374.344 1.672 1.48 1.672 1.48 1.015-.195 2.57-1.735 2.57-1.735 1.913.569 3.257 3.287 2.66 2.78.957-.12 2.273-.569 3.287-.867 0 0 .179-.612.36-.09 2.33 6.783 8.367 6.307 1.436 8.262 0 0-.45 0 .956 1.12 6.903 5.528-5.35 3.81 1.165 6.35.268-.256-3.914 2.465-3.914 3.228 0 1.27-2.66 4.63-4.96 3.302-1.285-.732-1.494 1.54-2.241.492-1.464-2.048-4.452-.09-3.348-1.971 1.614-1.329-1.673.523-2.3.523-2.122 0 2.748-7.097 9.922-1.824 2.09 1.525-2.211-3.661 1.614-3.661.36.12.268-1.329.268-1.734-2.002-.388 3.526-.016 3.526-3.229.36.074 1.316-.882-4.154 0 0 0-.178-1.912-.089-2.256.268-1.12 3.078-.763 2.3-1.913l-2.032-4.093c-6.574-1.045-2.81-1.703-6.934-.867-.178.972-8.784 5.065-8.517 6.962.268 1.793 5.409 2.392.538 5.559 7.288 13.976-5.38-.309-.091 3.144z" fill="#987a52"/><path d="M364.691 250.343l.449 11.207 4.661-10.19-3.883 10.519 8.246-7.62-7.619 8.234 10.519-3.883-10.19 4.692 11.207.433-11.207.434 10.19 4.692-10.519-3.884 7.62 8.234-8.247-7.62 3.883 10.52-4.661-10.19-.449 11.197-.449-11.208-4.692 10.19 3.884-10.519-8.219 7.62 7.62-8.234-10.519 3.884 10.19-4.692-11.207-.434 11.207-.433-10.19-4.692 10.519 3.883-7.62-8.234 8.219 7.62-3.884-10.52 4.692 10.19.45-11.196z" fill="#6a4819"/><path d="M366.723 253.704l-1.374 8.455 5.049-6.918-4.513 7.29 7.32-4.467-6.933 5.021 8.456-1.316-8.339 1.959 8.339 2.032-8.456-1.374 6.903 5.049-7.29-4.499 4.452 7.321-4.99-6.948 1.315 8.455-1.97-8.33-2.033 8.323 1.374-8.456-5.049 6.918 4.514-7.29-7.321 4.467 6.933-5.02-8.456 1.315 8.339-1.958-8.339-2.033 8.456 1.375-6.903-5.05 7.29 4.499-4.452-7.321 4.99 6.949-1.315-8.456 1.971 8.338 2.032-8.33z" fill="#5b390d"/><path d="M370.429 263.73a5.738 5.738 0 1 1-5.738-5.737 5.74 5.74 0 0 1 5.738 5.737z" opacity=".9"/><path d="M358.655 274.728c-.836.837-2.509.554-3.705-.673-1.224-1.211-1.525-2.869-.658-3.72.837-.837 2.51-.538 3.705.673 1.224 1.209 1.525 2.869.658 3.72z" fill="#fff" opacity=".7"/><path d="M376.944 260.711c-1.255 1.27-4.333.268-6.844-2.257-2.51-2.509-3.527-5.574-2.242-6.829 1.255-1.27 4.305-.267 6.814 2.257 2.54 2.512 3.526 5.574 2.272 6.829z" fill="#fff" opacity=".9"/><path d="M364.821 207.245c-26.053 0-49.725 10.74-49.725 56.103 0 42.613 23.672 56.107 49.725 56.107s50.722-45.981 51.179-56.11c1.902-42.042-25.125-56.1-51.179-56.1zm29.927 65.168c-3.216 5.15-8.015 7.178-28.557 6.727-12.342-.273-16.616-4.973-25.013-2.973-7.956-2.451-12.56-8.178-9-16.417 16.216-15.647 62.66-14.62 66.046-4.55l-.255 10.58c-.61 1.717-1.885 4.496-3.221 6.633z" fill="#f0c7b1"/><path d="M122.943 68.699c-9.393-.04-17.016 6.033-17.039 13.566-.025 7.535 7.572 13.67 16.961 13.713 9.391.037 17.014-6.033 17.037-13.566.026-7.534-7.566-13.669-16.959-13.713zm14.594 18.955c-1.261 2.02-3.143 2.815-11.199 2.638-4.84-.107-6.516-1.95-9.809-1.166-3.12-.961-4.925-3.207-3.529-6.438 6.359-6.136 24.572-5.733 25.9-1.784l-.1 4.149a15.08 15.08 0 0 1-1.263 2.601z" fill="url(#g)" transform="matrix(2.55 0 0 2.55 44.029 48.895)"/><path d="M137.537 87.654a15.28 15.28 0 0 0 1.264-2.601l.1-4.149c-1.328-3.949-19.541-4.352-25.9 1.784-1.396 3.231.409 5.477 3.529 6.438 3.293-.784 4.969 1.059 9.809 1.166 8.056.177 9.937-.619 11.198-2.638z" fill="url(#h)" transform="matrix(2.55 0 0 2.55 44.029 48.895)"/><path d="M324.875 255.937c24.524-14.69 42.588-15.626 71.699-13.754-24.3-3.828-52.285-1.05-71.699 13.754z" fill="#c27b55"/><path d="M393.84 247.686c6.51 1.295 13.513 11.171 13.513 11.171l-5.598-1.902c-1.114 4.516-1.18 4.756-3.781 8.68v-9.932c-3.792-10.667-61.685-10.542-69.95 10.661.485-3.399 9.24-29.944 65.816-18.678zm-26.803 31.9c24.225.148 25.66-2.39 27.731-7.719-3.973 4.36-7.958 6.742-28.368 6.314-14.336-.298-17.692-6.314-29.486-1.262 8.925-3.083 16.417 2.58 30.123 2.667z"/><path d="M141 113.974c.035 22.622-18.292 40.994-40.938 41.025-22.642.037-41.028-18.273-41.063-40.9-.035-22.62 18.292-41.064 40.937-41.1 22.643-.035 41.031 18.35 41.064 40.975z" fill="url(#i)" transform="matrix(2.55 0 0 2.55 44.029 48.895)"/><path d="M137.5 53.999c0 20.711-16.789 37.5-37.499 37.5-20.711 0-37.501-16.789-37.501-37.5s16.79-37.5 37.501-37.5c20.71 0 37.499 16.789 37.499 37.5z" fill="url(#j)" transform="matrix(2.55 0 0 2.55 44.029 48.895)"/><path d="M184.061 230.066c15.71-22.61 45.402-20.965 69.765-19.094 6.198.477 12.562.722 18.682 1.848 4.386.805 8.1 5.5 4.893 9.698-1.498 1.996-5.059 1.877-7.247 1.974-28.941 1.31-62.7-13.17-86.093 5.574zm231.564-10.28c-5.357-2.646-10.874-4.286-16.89-4.463-22.07-.66-61.334 19.162-72.554 17.538-6.873-.998-6.406-7.812-3.69-9.834 1.633-1.217 2.125-1.257 17.512-6.037 26.146-8.118 55.618-15.716 75.622 2.796z" fill="#504543"/><path d="M298.975 357.4c-6.627-.202-18.421-7.034-17.013-13.174 1.303-5.707 8.726 2.08 17.253 2.152 8.524.069 18.707-5.016 19.905.707 1.93 9.24-9.468 10.646-20.145 10.314z" fill="#e8b9a0"/><path d="M313.8 353.926c.536.701 1.46.701 2.033-.005.59-.706.62-1.854.069-2.552-3.998-5.154-11.194 1.754-10.651 2.47.201.268 5.528-3.756 8.55.087zM284 340.812c.839 5.477 2.58 12.79 16.593 16.623-13.814-.41-22.79-2.981-22.716-15.825.039-6.5 6.83-19.865 6.83-19.865s-1.594 13.278-.707 19.067z" fill="#c27b55"/><path d="M230.473 368.18c.63 2.858.193 3.924-.8 6.056.751-3.27.775-3.32.8-6.057zm65.14 70.446c-.048-2.932-1.065-4.482-3.779-5.378 2.18 1.477 3.222 2.81 3.78 5.378zm-9.18-2.64c-.122-2.52-.679-4.046-2.665-5.645 1.356 1.913 1.938 3.222 2.664 5.644zm-9.521-3.199c.194 1.115 1.793 3.174 3.222 3.634-1.187-.678-3.222-3.634-3.222-3.634zm-8.89-4.045c.193.581 1.647 4.554 2.01 4.045.024 0-2.301-4.893-2.01-4.045zm6.056-6.856c-.606 2.423-.727 3.852-.412 6.468.242-1.502.436-5.28.412-6.468zm5.256-6.88c-.218 1.866-.242 3.804 0 5.645.218-1.6.267-3.464 0-5.645zm2.835 11.725c1.599-2.059 2.156-3.125 2.834-5.644-.509.8-2.47 4.772-2.834 5.644zm8.866-5.668c-.194 3.1.097 4.481 1.211 6.855-.872-4.094-.581-2.665-1.21-6.855zm-3.634-3.634c1.018-1.987 1.381-3.125 1.623-5.257-.436 1.066-1.38 4.264-1.623 5.257zm9.303-3.634c-.17 1.502.12 4.288 1.623 4.046-1.139.193-1.478-2.932-1.623-4.046zm-9.303-6.056c.776-1.793 1.357-3.828 1.623-5.645-.799 1.817-1.332 3.78-1.623 5.645zm-16.957 4.457c-.703 2.132-.945 3.513-.8 6.056.243-1.114.727-4.869.8-6.056zm-6.856 15.335c1.236-2.423 1.696-3.925 2.01-6.468-.556 1.356-1.646 4.845-2.01 6.468zm-5.644-6.057c-1.308 1.454.412 4.046.412 4.046-.049-1.744-.97-2.592-.412-4.046zm2.422-13.977c0-.146-.29.557.388 6.298.145-6.177-.412-7.098-.412-6.056.024 0 .024-.097.024-.242zm-9.302 5.087c.194 3.56.073 4.99.8 7.267-.243-5.16-.146-4.845-.8-7.267zm-6.056.412c-.436 2.01-.51 3.246.799 4.845-.872-1.793-.8-2.786-.8-4.845zm-10.078-5.257c.048-1.236-.024-2.69-.363-4.07 0-.218-.17 1.623.363 4.07zm4.167 1.43l1.477-7.075c-1.017 1.72-1.477 7.074-1.477 7.074zm8.333-8.698c-1.332 1.26-2.083 4.022-2.01 5.645.266-1.066 1.308-4.579 2.01-5.645zm6.468 6.88c.606-2.592.727-4.118.412-6.855-.266 1.623-.436 5.523-.412 6.855zm-.412-20.591c-.484 1.575-.581 2.301-.411 4.046.048-.194.411-3.9.411-4.046zm-6.443 6.444c1.114-1.526 0-5.645 0-5.645s.314 4.918 0 5.645zm-8.891-2.81c.412 2.01 1.114 4.215 2.01 6.056a25.407 25.407 0 0 0-2.01-6.056zm-8.067 0c-.727 4.384-.145 5.644.8 8.067-.582-3.586-.752-4.046-.8-8.067zm-6.056-4.845c-.97 1.55-1.308 5.232.412 7.267-.994-1.865-.897-5.838-.412-7.267zm2.01-12.525s-1.21 2.278-1.21 5.645c.435-1.914.92-4.118 1.21-5.645zm7.68 6.057s-2.01.145-1.211 6.056c.896-7.413 1.21-6.056 1.21-6.056zm10.077 2.422a25.9 25.9 0 0 0 1.212-6.468c-.679 2.083-1.066 4.288-1.212 6.468zm-4.845-14.947c-1.114 2.544-1.308 3.513-1.21 6.057l1.21-6.057zm9.69-4.021c-1.623 1.405-2.131 5.111-2.01 7.267 1.114-6.589 2.01-7.267 2.01-7.267zm10.902.388c-1.938 1.55-2.714 2.664-3.222 5.644.944-2.301 1.162-3.125 3.222-5.644zm6.88 6.468c1.55-1.527 3.633-8.067 3.633-8.067-.436-.848-3.125 7.219-3.634 8.067zm12.112-8.067c-1.357.315-3.464 6.395-4.046 7.68.727-1.043 4.046-7.68 4.046-7.68zm7.655-.412c-1.163 2.398-1.793 3.658-2.422 6.468 1.162-2.301 1.72-4.19 2.422-6.468zm9.69-1.211c-1.841 4.142-1.042 2.955-3.222 7.267 1.381-1.72 2.423-3.222 3.222-7.267zm71.706 8.478c-.63 2.859-.194 3.925.8 6.057-.752-3.27-.776-3.32-.8-6.057zm-60.175 64.608c-2.713.897-3.61 1.648-3.634 4.579.558-2.592 1.454-3.125 3.634-4.579zm6.928-1.284c-1.986 1.6-2.761 3.61-2.882 6.13.726-2.423 1.55-4.24 2.882-6.13zm3.586 4.918c1.43-.46 3.052-2.52 3.222-3.634 0 0-2.035 2.956-3.222 3.634zm10.077-3.634c.364.51 1.817-3.44 2.011-4.045.315-.848-2.01 4.045-2.01 4.045zm-3.633-4.457c.315-2.616.193-4.046-.412-6.468 0 1.211.194 4.99.412 6.468zm-5.645-7.655c.242-1.865.218-3.803 0-5.644-.266 2.156-.218 4.02 0 5.644zm-5.644.388c.678 2.519 1.235 3.61 2.834 5.644-.387-.848-2.35-4.82-2.834-5.644zm-7.268 6.88c1.115-2.399 1.405-3.755 1.212-6.856-.63 4.166-.34 2.737-1.212 6.855zm3.222-15.747c.242 2.132.582 3.27 1.623 5.257-.242-1.017-1.187-4.215-1.623-5.257zm-6.855 3.222c1.477.242 1.792-2.544 1.623-4.045-.17 1.114-.51 4.239-1.623 4.045zm6.855-13.324c.267 1.817.848 3.852 1.623 5.645-.29-1.866-.823-3.828-1.623-5.645zm19.38 16.158c.146-2.543-.097-3.924-.8-6.056.073 1.187.558 4.942.8 6.056zm4.046 2.81c.315 2.52.8 4.046 2.01 6.469-.363-1.623-1.453-5.112-2.01-6.468zm7.267 4.458s1.72-2.568.412-4.046c.533 1.454-.388 2.302-.412 4.046zm-2.035-17.781c0-1.042-.533-.121-.411 6.056.678-5.741.387-6.444.387-6.298.024.145.024.242.024.242zm8.48 12.112c.726-2.277.605-3.706.799-7.267-.63 2.422-.533 2.107-.8 7.267zm6.055-2.01c1.309-1.6 1.236-2.835.8-4.845.024 2.059.097 3.052-.8 4.845zm11.265-14.148c-.34 1.381-.412 2.835-.363 4.07.533-2.47.363-4.312.363-4.07zm-6.008-1.599l1.478 7.074s-.46-5.354-1.478-7.074zm-4.845 4.046c.073-1.623-.702-4.385-2.01-5.644.702 1.041 1.744 4.554 2.01 5.644zm-8.89-5.669c-.34 2.738-.218 4.264.411 6.856.025-1.308-.145-5.208-.411-6.856zm1.21-9.69c.17-1.744.074-2.47-.411-4.045.024.17.388 3.876.412 4.045zm6.057-3.222s-1.114 4.119 0 5.645c-.315-.727 0-5.645 0-5.645zm6.88 8.891a25.413 25.413 0 0 0 2.01-6.056 25.407 25.407 0 0 0-2.01 6.056zm9.278 2.01c.97-2.422 1.55-3.706.8-8.066-.049 4.021-.218 4.481-.8 8.067zm6.468-5.644c1.72-2.035 1.381-5.717.412-7.267.46 1.429.557 5.402-.412 7.267zm-.412-14.147c0-3.392-1.21-5.645-1.21-5.645.29 1.527.774 3.731 1.21 5.645zm-7.679 6.468c.8-5.911-1.211-6.056-1.211-6.056s.315-1.357 1.211 6.056zm-12.5-10.102a26.108 26.108 0 0 0 1.211 6.468c-.145-2.18-.533-4.385-1.211-6.468zm7.268-2.422c.096-2.544-.097-3.513-1.212-6.057l1.212 6.057zm-8.891-2.81c.121-2.157-.412-5.863-2.01-7.268 0 0 .896.678 2.01 7.267zm-9.69-1.212c-.509-3.004-1.284-4.118-3.222-5.644 2.06 2.495 2.277 3.319 3.222 5.644zm-13.736-7.267s2.084 6.54 3.634 8.067c-.509-.848-3.198-8.915-3.634-8.067zm-4.433 7.655c-.581-1.284-2.665-7.365-4.045-7.68 0 .025 3.318 6.662 4.045 7.68zm-9.278-1.599c-.63-2.786-1.26-4.07-2.422-6.468.702 2.277 1.26 4.167 2.422 6.468zm-8.89-.412c-2.205-4.312-1.381-3.125-3.222-7.267.799 4.045 1.816 5.547 3.221 7.267zm-5.136 57.147c-2.471 3.827-2.374 5.499-2.302 7.921.703-3.464.654-3.44 2.302-7.921zm-6.25-21.1c1.235 3.44 1.38 3.803 1.986 6.274-.072-2.64-.605-4.045-1.986-6.274zm6.928 5.16c.606-2.471 1.89-1.72 3.125-5.16-1.405 2.229-3.076 2.544-3.125 5.16z" fill="#2a232b"/><path d="M158.712 290.877c-6.178-22.478-9.506-42.159-14.127-62.691l.212-.049c-1.75-4.307-8.063-38.403-8.122-38.77-6.438-45.313 12.733-47.899 12.342-66.805 8.071 4.042 15.917 2.038 22.999-3.48-7.441-3.823-5.093-4.427-14.974-10.443 6.964-1.203 11.032.421 16.947 1.158-5.056-5.057-14.98-15.371-21.43-14.005l-.42-.902c9.335-7.286 21.797 7.882 33.032 3.774.34-41.751 61.371-50.421 76.225-56.626 19.775-7.525 40.433-24.074 54.96-25.553-8.224 8.264-13.26 21.545-13.635 31.513 11.98-11.44 12.827-11.105 30.985-31.273 0 16.228-4.496 18.265-10.33 27.79 15.838-10.379 35.585-39.497 65.997-43.95l.334.944c-10.96 6.456-19.442 17.35-25.24 32.405 5.755-6.951 13.9-14.492 22.914-15.856l.34.941c-5.65 3.379-16.714 14.642-19.246 33.502 11.172-12.477 28.943-22.817 41.142-26.724l.477.882c-11.2 9.112-15.69 25.062-18.222 38.623 7.854-11.68 12.423-14.342 22.304-19.248-3.18 4.756-2.973 3.925-5.502 9.094 6.11 15.613 26.298 16.22 29.748 43.5 4.156-3.631 5.806-4.542 10.585-7.885l.719.694c-3.59 5.577-6.551 15.453-8.522 22.063 7.089-5.414 18.036-9.402 25.745-12.184l.538.836c-6.505 6.612-14.403 16.692-15.713 27.627 2.55-1.51 2.672-1.336 5.992-3.739 0 7.857.268 6.855.324 10.468 3.205-2.869 3.697-3.269 5.804-5.561-.467 82.523-4.705 66.075-16.109 123.588-1.999 10.106-5.536 27.752-7.805 36.228l-15.425 2.65c4.768-57.105-.237-44.656 3.23-80.591 5.131-52.986-37.75-96.42-94.413-82.204-11.465 2.876-57.222 2.874-68.682 0-62.594-15.716-85.147 20.859-91.866 84.859-3.292 31.41-4.098 20.81.681 77.935l-14.793-2.535z" fill="#433b39"/><path d="M458.087 136.51c-.053-3.615-.323-2.61-.323-10.467-3.32 2.4-3.443 2.229-5.993 3.738 1.31-10.934 9.208-21.014 15.713-27.626l-.538-.837c-7.706 2.785-18.653 6.77-25.745 12.184 1.969-6.61 4.932-16.486 8.522-22.062l-.719-.694c-4.778 3.343-6.428 4.253-10.585 7.885-3.45-27.278-23.638-27.887-29.748-43.5 2.53-5.17 2.323-4.338 5.503-9.094-9.881 4.906-14.451 7.568-22.305 19.247 2.532-13.56 7.025-29.51 18.222-38.622l-.477-.882c-12.199 3.906-29.97 14.246-41.141 26.724 2.532-18.86 13.596-30.124 19.245-33.502l-.34-.941c-9.014 1.364-17.158 8.907-22.914 15.856 5.799-15.056 14.283-25.95 25.24-32.406l-.334-.943c-30.411 4.452-50.158 33.57-65.996 43.949 5.834-9.524 10.33-11.564 10.33-27.79C315.545 36.895 314.698 36.561 302.719 48c.372-9.968 5.41-23.25 13.634-31.513-14.524 1.48-35.182 18.026-54.96 25.554-14.85 6.202-75.883 14.872-76.222 56.625-11.235 4.108-23.697-11.06-33.032-3.774l.42.903c6.45-1.37 16.374 8.945 21.43 14.005-5.913-.737-9.983-2.362-16.947-1.158 9.881 6.015 7.533 6.62 14.974 10.442-7.082 5.518-14.928 7.523-22.999 3.48.39 18.91-18.783 21.495-12.342 66.806.059.367 6.373 34.463 8.122 38.77l-.212.048c4.621 20.533 7.949 40.216 14.127 62.692l.067.008c-1.686-41.927-28.101-101.531-12.6-139.71 2.022-4.985 9.846-18.133 9.846-18.133s24.549-3.223 25.704-12.75c0 0-5.1-2.55-7.65-5.1 5.1 2.55 5.1-5.1 10.2-2.55 0-5.1-7.65-2.55-7.65-7.65 5.1 0 10.2 0 15.3 5.1-2.55-12.75 0-25.5 10.2-33.15 25.5-20.4 58.65-17.85 84.15-38.25-2.55 12.75-5.1 25.5-5.1 38.25 15.3-7.65 20.4-22.95 33.15-33.15 2.55 10.2-2.55 22.95-2.55 33.15 7.65-17.85 17.85-35.7 40.8-40.8-10.2 10.2-10.2 25.5-10.2 38.25 0-10.2 10.2-15.3 12.75-22.95v30.6c5.1-15.3 15.3-22.95 28.05-28.05-10.2 10.2-7.65 20.4-10.2 33.15 7.65-7.65 17.85-10.2 25.5-17.85 7.65 15.3 2.55 28.05 2.55 43.35 2.55-12.75 15.3-20.4 22.95-30.6 2.55 12.75 2.55 25.5 0 38.25 2.55-7.65 7.65-12.75 10.2-20.4 0 12.393-1.704 23.108-5.05 33.512 3.2-3.702 8.426-5.383 10.15-10.562v30.67c1.479-3.04 5.84-4.101 7.65-7.72-2.178 8.703-.648 15.563-.15 23.72.945-4.998 5.757-8.063 7.496-12.665.102-1.984.207-3.97.301-5.955.584 2.326.344 4.244-.3 5.955-2.326 45.316-6.613 90.565-15.954 134.2l1.653-.282c2.27-8.476 5.804-26.122 7.805-36.228 11.406-57.513 15.645-41.065 16.109-123.588-2.104 2.292-2.596 2.693-5.802 5.559z" fill="#524f4e"/><path d="M471.865 99.118c-12.62 2.126-21.435 6.216-28.177 10.837.981-2.563 5.592-17.008 10.557-23.077-7.625 3.399-12.036 7.045-14.586 8.95 0-2.632-1.015-5.671-1.505-7.242-.482-1.313-.887-2.848-3.241-6.68-13.186-18.606-14.01-10.823-24.809-25.067 1.969-4.618 4.817-9.109 8.39-12.827-9.966 1.415-15.211 5.291-21.522 11.5a2.743 2.743 0 0 0-.255.307c3.955-15.622 11.704-29.165 26.928-34.247-18.83-.683-42.14 13.24-53.856 27.132 5.059-16.271 11.847-24.023 21.932-31.237-7.257-1.074-14.37 1.892-19.994 6.579 6.48-11.213 16.108-20.143 23.845-24.302-1.1-.025-2.397-.102-3.825 0-1.982-.507-13.972 1.443-18.258 3.29-21.24 8.292-36.692 27.596-43.325 33.864 4.886-7.9 5.126-13.51 4.233-21.726-1.67 1.435-29.618 28.19-29.962 28.534 1.981-10.988 5.724-17.69 12.8-27.514-12.614-2.362-44.196 18.403-63.775 23.944-20.512 5.557-71.41 17.144-69.08 57.885-10.952 2.089-26.988-15.496-35.393-.74 6.747-4.003 15.685 5.636 21.904 11.144-2.55-.416-11.074-2.417-15.198.332 4.83 1.874 9.053 7.476 15.02 10.455a.906.906 0 0 1 .23.102c-5.455 2.876-11.902 5.186-17.825 3.544-.893-.255-1.48-.408-1.48-.433-.688-.306-1.427-.612-2.218-.97h-.025l-.026-.025c-.331-.178-.663-.357-1.02-.535 1.773 14.3-19.933 25.895-17.544 56.15.982 18.618 12.62 75.246 27.25 113.644l1.231.367c-6.1-21.996-9.631-42.687-14.2-62.988-.399 0-7.837-38.362-7.906-38.785-6.39-44.959 12.735-48.22 12.368-65.892 7.958 3.98 16.656 1.112 23.409-4.411-7.951-3.956-6.255-5.07-14.484-10.073 5.515-.954 12.247 1.232 16.88 1.53-5.982-5.982-16.062-16.6-22.898-15.147 9.098-7.102 21.667 8.341 33.226 3.723 0-41.777 60.494-50.07 75.914-56.508 18.54-7.053 41.521-24.164 53.394-25.372-6.222 6.267-12.8 20.147-12.8 32.079 12.326-11.827 13.54-11.769 31.007-31.161 0 15.335-5.73 18.074-11.299 27.973 16.356-9.43 36.156-40.361 67.55-44.956-13.143 7.744-21.51 21.228-26.546 35.623 5.998-7.8 14.79-16.651 24.557-18.13-5.123 3.065-17.496 14.744-19.686 35.521 11.08-13.04 29.544-23.832 41.998-27.82-11.743 9.557-16.238 26.446-18.844 41.36 4.301-6.56 8.56-12.487 15.223-16.676a.2.2 0 0 1 .102-.051c2.624-1.783 1.938-1.298 6.429-3.545-1.706 2.55-1.864 2.219-4.565 7.752 6.186 16.261 26.834 16.353 29.909 44.549 4.735-4.2 6.225-4.958 11.271-8.492-3.932 6.105-7.1 17.258-9.053 23.766 7.408-6.337 21.112-11.041 26.877-13.132-7.65 7.777-15.078 18.094-15.963 28.968 1.566-1.054 3.555-1.887 6.095-3.723 0 6.946.331 6.018.331 10.608 1.342-1.227 4.386-3.851 5.792-5.381-.5 80.876-4.794 65.188-16.094 122.17-4.227 21.36-6.459 31.238-7.856 36.422l1.091-.222c9.14-27.415 27.38-89.357 26.556-121.42-.084-11.985-2.7-36.975-2.83-39.525-.054.045-5.315 5.023-5.381 5.023 0-1.303-.535-6.847-.535-9.868-.9.69-2.793 1.983-5.33 3.468 3.516-10.616 8.869-17.213 18.87-29.195z" fill="#150e0c"/><path d="M178.414 250.32c29.81 8.21 72.267-.383 102.076 18.207a153.914 153.914 0 0 1-.637 3.34c-1.632 7.42-8.237 12.291-16.218 13.72-21.522 3.85-57.554 3.365-78.642 1.886-3.035-.204-5.508-2.295-6.018-5.1-2.066-11.118-2.856-20.45-.561-32.053zm137.674 3.468c.128 6.324.816 12.061 2.117 18.105 1.606 7.42 8.236 12.29 16.218 13.719 21.522 3.85 57.553 3.366 78.642 1.887 3.034-.204 5.508-2.295 6.018-5.1.79-4.31 1.402-8.364 1.708-12.368-29.835-20.502-73.567-11.322-104.142-19.66-.357 1.096-.586 2.244-.56 3.417z" fill="#fff" opacity=".2"/><path d="M281.97 253.788a95.572 95.572 0 0 1-1.48 14.739c-29.81-18.615-72.292-9.996-102.076-18.207.076-.306.102-.612.178-.944.663-3.162 3.417-5.482 6.834-5.814 32.385-3.009 54.443-2.754 86.42-.28 5.788.484 10.25 5.074 10.123 10.506zm137.52-4.386c-.662-3.162-3.416-5.483-6.833-5.814-32.385-3.01-54.443-2.754-86.42-.28-4.539.356-8.21 3.238-9.562 7.088 30.549 8.339 74.307-.841 104.142 19.66.51-6.63.23-13.157-1.326-20.654z" fill="#fff" opacity=".4"/><path d="M434.179 249.682h-13.311c-.051-.178-.051-.357-.102-.535-.765-3.672-4.004-6.426-7.982-6.809-32.895-3.06-55.08-2.728-86.649-.28-.382.025-.74.127-1.096.178l.076-.076s-.306.076-.841.204c-.23.05-.485.102-.714.153-2.754.612-8.721 1.785-13.694 1.938-9.97.306-12.112.28-21.675 0-4.972-.153-10.94-1.326-13.693-1.938-.23-.077-.46-.102-.714-.153a85.71 85.71 0 0 1-.842-.204l.077.076c-.357-.05-.714-.153-1.097-.178-31.594-2.448-53.78-2.78-86.649.28-3.978.383-7.216 3.137-7.981 6.809-.051.178-.051.357-.102.535h-13.311v7.446h12.214a72.764 72.764 0 0 0-.178 12.674h2.703c-.51-6.477-.23-12.878 1.3-20.196.536-2.601 2.805-4.54 5.636-4.794 16.065-1.505 29.81-2.193 43.299-2.193 12.673 0 25.474.56 42.865 1.912 5.1.383 9.002 4.437 8.9 9.206a91.65 91.65 0 0 1-1.76 16.04h2.729a93.356 93.356 0 0 0 1.708-15.99 10.88 10.88 0 0 0-.994-4.717 29.533 29.533 0 0 1 3.85-.535c6.4-.46 20.579-.357 25.78 0a28.88 28.88 0 0 1 3.851.535c-.663 1.454-1.045 3.035-.994 4.718a93.356 93.356 0 0 0 1.708 15.988h2.729c-1.046-5.278-1.632-10.43-1.734-16.04-.102-4.768 3.8-8.822 8.9-9.205 17.39-1.351 30.191-1.912 42.865-1.912 13.49 0 27.26.688 43.299 2.193 2.83.255 5.1 2.193 5.635 4.794 1.53 7.318 1.81 13.719 1.3 20.196h2.678c.332-4.182.255-8.339-.178-12.674h12.189v-7.446z" fill="#26120b"/><defs><radialGradient id="i" cx="100" cy="114" r="41" gradientUnits="userSpaceOnUse" class="svga-on-canvas-facehighlight-gradient-single-0"><stop stop-opacity=".5" stop-color="#ffe4d6" offset="0"/><stop stop-opacity="0" stop-color="#f0c7b1" offset=".9"/></radialGradient><radialGradient id="j" cx="100" cy="54" r="37" gradientUnits="userSpaceOnUse" class="svga-on-canvas-facehighlight-gradient-single-1"><stop stop-opacity=".5" stop-color="#ffe4d6" offset="0"/><stop stop-opacity="0" stop-color="#f0c7b1" offset=".9"/></radialGradient><linearGradient id="a" x1="100" y1="171" x2="100" y2="128" gradientUnits="userSpaceOnUse" class="svga-on-canvas-chinshadow-gradient-single-0"><stop stop-opacity=".8" stop-color="#e1ac8f" offset="0"/><stop stop-color="#c27b55" offset=".7"/></linearGradient><linearGradient id="b" x1="100" y1="142" x2="100" y2="139" gradientUnits="userSpaceOnUse" class="svga-on-canvas-mouth-gradient-single-0"><stop stop-color="#e8b9a0" offset=".1"/><stop stop-color="#e1ac8f" offset="1"/></linearGradient><radialGradient id="c" cx="125.379" cy="82.93" r="12.84" gradientTransform="matrix(-1.0592 .0004 -.0004 .9318 206.511 5.177)" gradientUnits="userSpaceOnUse" class="svga-on-canvas-eyesback-gradient-left-0"><stop stop-color="#fff" offset="0"/><stop stop-color="#fdfefe" offset=".544"/><stop stop-color="#f6f8f9" offset=".74"/><stop stop-color="#eaeff2" offset=".879"/><stop stop-color="#d9e3e8" offset=".992"/><stop stop-color="#d8e2e7" offset="1"/></radialGradient><radialGradient id="f" cx="125.001" cy="82.93" r="12.841" gradientTransform="matrix(1.0592 .0004 .0004 .9318 -6.511 5.177)" gradientUnits="userSpaceOnUse" class="svga-on-canvas-eyesback-gradient-right-0"><stop stop-color="#fff" offset="0"/><stop stop-color="#fdfefe" offset=".544"/><stop stop-color="#f6f8f9" offset=".74"/><stop stop-color="#eaeff2" offset=".879"/><stop stop-color="#d9e3e8" offset=".992"/><stop stop-color="#d8e2e7" offset="1"/></radialGradient><radialGradient id="d" cx="123.218" cy="81.096" fx="133.802" fy="77.197" r="17.898" gradientTransform="matrix(.9998 .0183 .0166 -.7038 -47.759 136.625)" gradientUnits="userSpaceOnUse" class="svga-on-canvas-eyesfront-gradient-left-3"><stop stop-color="#e1ac8f" offset="0"/><stop stop-opacity=".3" stop-color="#e1ac8f" offset=".7"/><stop stop-opacity="0" stop-color="#f0c7b1" offset="1"/></radialGradient><radialGradient id="e" cx="79.496" cy="81.496" r="23.208" gradientTransform="matrix(1.0971 -.0499 .0576 .9543 -20.163 27.912)" gradientUnits="userSpaceOnUse" class="svga-on-canvas-eyesfront-gradient-left-4"><stop stop-opacity="0" offset=".9"/><stop stop-opacity=".2" offset="1"/></radialGradient><radialGradient id="g" cx="122.818" cy="81.096" fx="133.402" fy="77.197" r="17.898" gradientTransform="matrix(-.9998 .0183 -.0166 -.7038 246.96 136.633)" gradientUnits="userSpaceOnUse" class="svga-on-canvas-eyesfront-gradient-right-3"><stop stop-color="#e1ac8f" offset="0"/><stop stop-opacity=".3" stop-color="#e1ac8f" offset=".7"/><stop stop-opacity="0" stop-color="#f0c7b1" offset="1"/></radialGradient><radialGradient id="h" cx="79.859" cy="81.511" r="23.208" gradientTransform="matrix(-1.0971 -.0499 -.0576 .9543 220.163 27.916)" gradientUnits="userSpaceOnUse" class="svga-on-canvas-eyesfront-gradient-right-4"><stop stop-opacity="0" offset=".9"/><stop stop-opacity=".2" offset="1"/></radialGradient></defs></svg>